<?xml version="1.0" encoding="UTF-8"?>
<svg viewBox="0 0 315.34671 316.91092" xmlns="http://www.w3.org/2000/svg">
 <path d="m101.72 315.99c-1.925-0.43919-5.975-1.4764-9-2.305-3.025-0.82854-7.3265-1.7422-9.5589-2.0303-17.537-2.2635-40.461-12.338-51.876-22.798-11.397-10.443-21.784-28.207-26.218-44.838-5.7642-21.62-6.7362-48.522-2.2943-63.5 6.243-21.051 12.321-34.273 19.494-42.409 9.8927-11.221 20.417-24.982 22.477-29.391l2.2435-4.8008-2.0922-1.9492c-1.1507-1.072-2.8277-1.9492-3.7266-1.9492-3.4669 0-17.087-5.4394-19.799-7.907-2.6596-2.4199-2.8118-2.9676-2.2798-8.2047 0.68755-6.7687 6.4554-18.722 10.796-22.375 1.6688-1.4042 4.2508-2.5132 5.8511-2.5132 3.6434 0 4.4607-1.3371 2.5804-4.2218-0.81678-1.253-1.7828-4.5282-2.1466-7.2782s-0.8002-5.1484-0.96967-5.3298-2.1146 0.70982-4.3224 1.9805c-2.5362 1.4597-5.0643 4.1499-6.8659 7.3065-2.4808 4.3464-3.3029 5.0282-6.3225 5.2425-3.2516 0.23076-3.3483 0.15326-1.5298-1.2267 1.0676-0.81014 1.4426-1.473 0.83341-1.473s-1.9455 1.1501-2.9694 2.5557c-1.7191 2.36-2.0626 2.4515-4.4847 1.1949-2.6104-1.3543-2.614-1.3726-0.74393-3.8057 2.4107-3.1366 2.4695-4.7489 0.0948-2.5999-3.6171 3.2734-3.0599 1.5279 1.8407-5.7671 5.7499-8.5592 10.223-13.316 13.902-14.784 1.819-0.72597 2.1411-1.1667 1.086-1.486-0.825-0.24966-2.4-0.85085-3.5-1.336-5.9306-2.6156-9.9737-3.9734-11.872-3.987-1.7404-0.01252-1.8547-0.19184-0.62788-0.98469 1.1647-0.75269 0.87209-0.9728-1.309-0.98469-1.615-0.0088-2.5463-0.44038-2.191-1.0153 0.33992-0.55-0.08352-1-0.94098-1s-1.559-0.45-1.559-1 1.0984-1 2.441-1 2.7149-0.44322 3.0497-0.98494c0.38161-0.61745-0.62242-0.74108-2.691-0.33135-2.9869 0.59164-3.1705 0.49645-1.9364-1.004 0.74982-0.9117 1.6498-1.4939 2-1.2938s1.5367-0.03076 2.6367-0.51307c1.5122-0.66303 1.0853-0.80344-1.75-0.57567-4.9101 0.39445-4.8031-0.78657 0.18601-2.0529 3.9528-1.0033 9.2839-0.41662 14.211 1.564 1.456 0.58525 2.8253 0.88601 3.0429 0.66835s3.3014 0.50925 6.8528 1.6154c8.9306 2.7815 17.746 1.9017 22.26-2.2215 1.7346-1.5844 3.9982-3.1486 5.0302-3.4762 2.3578-0.74834 10.36 1.3805 13.667 3.6357 1.5652 1.0675 5.3045 1.8957 10 2.2149 6.1461 0.41775 8.9458 1.2335 15.509 4.5186 8.9356 4.4726 21.359 14.073 29.098 22.486 2.8089 3.0534 6.6339 6.3351 8.5 7.2926s4.4016 2.5266 5.6344 3.4868c2.3981 1.8678 5.3321 1.8483 20.258-0.1348 4.125-0.54803 8.175-1.0347 9-1.0814 2.4235-0.13735 4-1.8852 4-4.4348 0-1.3077 0.59165-2.3776 1.3148-2.3776 1.426 0 4.6852-6.0524 4.6852-8.7006 0-0.89801 0.30232-1.3304 0.67181-0.96093s2.1165-1.3602 3.8823-3.8438c3.8966-5.4806 11.189-13.495 12.279-13.495 0.43578 0 2.114-1.3949 3.7294-3.0998 4.4063-4.6504 10.294-8.3668 16.437-10.375 3.025-0.98899 6.4-2.1584 7.5-2.5987 9.3147-3.7284 29.09-1.8586 37 3.4983 3.6222 2.4531 6.4214 5.6241 6.4667 7.3255 0.0183 0.6875 0.38684 1.25 0.81898 1.25s0.88293 0.7875 1.0017 1.75c1.4006 11.346-0.06486 20.125-4.2823 25.654-1.3778 1.8064-2.4983 3.9169-2.4898 4.69 0.01198 1.0993 0.19146 1.1281 0.82363 0.13197 0.61775-0.97338 1.2379-0.79896 2.6305 0.73987 2.3856 2.6361 3.1305 10.819 1.5114 16.602-1.5277 5.4563-4.3563 7.7585-15.231 12.396-6.6122 2.82-7.75 3.6594-7.75 5.7181 0 2.7307 3.3336 6.074 10 10.029 7.5233 4.4635 19.124 13.451 25.543 19.788 5.9908 5.9148 23.22 30.59 22.693 32.5-0.07594 0.275 0.44745 1.4 1.1631 2.5 1.7234 2.649 7.3829 18.198 8.0077 22 5.4677 33.273 0.87154 59.517-14.423 82.352-9.5466 14.254-20.199 22.921-39.523 32.159-6.0287 2.8821-14.561 7.0236-18.961 9.2034-9.5222 4.7172-8.9784 4.5891-23.5 5.5357-20.64 1.3455-35.561 0.81124-45.325-1.623l-8.8253-2.2002-6.068 4.142c-7.4792 5.1053-16.364 8.94-28.781 12.422-5.225 1.465-12.089 3.529-15.254 4.5865s-6.0897 1.8711-6.5 1.8078-2.321-0.47434-4.246-0.91353zm7.0158-3.215c2.1913-0.68391 3.9842-1.6105 3.9842-2.059s0.42887-0.55048 0.95304-0.22652c0.87954 0.54359 11.656-2.4788 21.797-6.1132 4.1164-1.4753 5.181-2.6643 3.3814-3.7766-0.47775-0.29527-1.1539-2.321-1.5026-4.5016s-1.0252-4.2066-1.5033-4.502-4.8644 0.84298-9.7474 2.53c-13.23 4.5706-26.459 4.0341-43.378-1.7593-27.519-9.423-43.218-22.814-54.169-46.204-5.525-11.801-7.8172-22.253-7.8172-35.645 0-12.973 1.982-22.343 7.9541-37.605 5.0489-12.903 6.5016-15.596 10.51-19.483 1.7512-1.6986 3.471-3.8361 3.8217-4.75s1.1283-1.6616 1.728-1.6616 0.84143-0.40285 0.53713-0.89522c-0.53556-0.86654 2.2013-2.5732 3.6492-2.2755 0.39271 0.08071 0.45706-0.52284 0.14301-1.3412s-0.07286-1.488 0.53599-1.488 1.9747-0.7875 3.0353-1.75c3.7595-3.4118 4.963-4.1958 11.73-7.6413 11.702-5.9578 20.799-7.9407 36.841-8.0304 11.128-0.06221 14.267-0.38597 15.301-1.5783 2.779-3.2034 8.1987-11.972 8.1987-13.265 0-2.4046-5.5859-6.8062-10.523-8.2921-5.7629-1.7344-7.4768-1.8092-7.4768-0.32637 0 0.61733 0.87786 0.88707 1.9632 0.60324 1.0798-0.28237 2.467 0.09356 3.0826 0.83541 0.88181 1.0625 0.41202 1.6442-2.2132 2.7404-4.0218 1.6793-15.421 2.1793-16.325 0.7161-0.355-0.57441-1.0841-0.77329-1.6202-0.44197s-1.5175 0.16873-2.1809-0.3613-2.2872-1.2958-3.6084-1.7018-4.6556-2.0668-7.4098-3.6907c-3.3026-1.9473-5.7808-2.7586-7.2784-2.3827-4.7906 1.2024-11.41-3.4573-11.41-8.0322 0-6.2184 4.806-11.651 10.307-11.651 2.1581 0 10.649 3.3589 15.984 6.3228 2.5236 1.4021 3.2562 0.62359 3.5311-3.7526 0.132-2.1011 0.46143-4.5447 0.73207-5.4302 0.41136-1.3459-0.78279-1.7253-7.2809-2.3132-10.334-0.93486-25.075-3.1746-34.087-5.1791-7.2416-1.6108-7.3366-1.6052-9.6491 0.56731-2.9183 2.7416-7.5886 12.999-8.286 18.199-0.75553 5.6329 2.1023 8.4097 9.5737 9.3023 7.485 0.89419 16.218 4.0908 19.507 7.1402 6.6495 6.1658 4.0789 11.952-12.831 28.88-13.935 13.95-20.728 23.09-27.511 37.013-6.2109 12.75-8.9793 23.745-9.6787 38.439-0.81402 17.102 3.0759 36.305 10.109 49.907 2.9112 5.6297 11.384 17.775 15.191 21.776 11.801 12.401 33.483 24.882 56.354 32.436 13.587 4.488 12.081 4.2498 17.051 2.6987zm-41.02-8.5065c-0.00206-0.4125-2.1396-1.6136-4.75-2.6692-14.045-5.6793-35.041-23.339-40.737-34.263-1.0947-2.0998-2.2912-4.044-2.6588-4.3204s-2.207-3.9914-4.0874-8.2555-3.6251-7.5468-3.8769-7.295-0.51091-0.30824-0.57578-1.2446-0.92832-4.4024-1.9188-7.7024c-1.4442-4.8117-1.8095-9.664-1.8448-24.5-0.04049-17.039 0.17651-19.368 2.7486-29.5 3.3048-13.017 12.22-32.2 18.964-40.801 2.5012-3.1903 10.216-11.648 17.144-18.795 13.064-13.477 14.5-16.029 11.347-20.158-1.4266-1.8675-7.4702-3.7203-6.3797-1.9558 1.5809 2.558-1.3107 9.2343-6.989 16.137-11.934 14.506-22.294 28.405-21.786 29.227 0.28752 0.46521 0.0462 0.84584-0.53626 0.84584s-1.059 0.9-1.059 2-0.45728 2-1.0162 2-1.6557 1.4625-2.4374 3.25-2.5265 5.725-3.8774 8.75-3.148 8.2-3.9934 11.5-2.1309 8.25-2.8565 11c-0.90817 3.4422-1.2988 11.699-1.2536 26.5 0.07214 23.651 0.68151 26.78 8.3725 43 6.2575 13.197 9.3126 17.418 20.517 28.347 9 8.7789 13.376 11.641 25.025 16.366 9.131 3.7039 8.5206 3.5221 8.5157 2.5367zm171.61-15.873c7.8196-5.0174 13.721-8.0325 20.393-10.419 11.48-4.1061 31.624-21.017 36.878-30.958 6.8746-13.009 8.2568-16.312 10.671-25.5 5.1684-19.672 4.1874-47.691-2.1804-62.274-5.5866-12.794-12.51-25.522-17.637-32.422-11.089-14.927-26.099-28.337-37.221-33.256-9.1735-4.057-11.906-10.696-7.2473-17.609 1.6762-2.4873 3.8151-3.897 8.25-5.4374 3.2929-1.1437 6.7137-2.5117 7.6016-3.04 4.17-2.4808 6.6527-13.626 3.8009-17.062-0.59817-0.72075-0.73587-1.8927-0.306-2.6043 0.69006-1.1423-2.3552 1.4664-16.807 14.398-2.0335 1.8196-5.2577 4.5345-7.165 6.0332s-3.7522 4.0195-4.1014 5.6095c-0.99323 4.5221-5.6466 8.3111-10.94 8.9077-4.1481 0.46754-4.8237 0.22631-7.5548-2.6973-2.6405-2.8267-2.944-3.7571-2.5372-7.7779 0.57387-5.6714 2.708-9.0383 6.8232-10.765 1.7447-0.73195 5.1972-3.2077 7.6722-5.5016s7.5188-6.4762 11.209-9.2938c6.3355-4.8381 8.1998-7.0509 4.1271-4.8988-2.3156 1.2236-27.926 7.4229-39.81 9.6364-4.936 0.91938-9.0389 1.758-9.1174 1.8636s-2.9118 4.1117-6.2961 8.9023c-5.9279 8.3912-13.103 15.507-20.985 20.811-2.0604 1.3865-5.1256 4.0648-6.8116 5.9517-2.5199 2.8202-3.7351 3.4118-6.8287 3.3241-6.9693-0.19755-10.907-3.8158-12.07-11.092-0.54437-3.4043-0.24369-4.3556 2.2269-7.0454 1.571-1.7104 4.149-3.3262 5.7289-3.5907s3.6404-1.1758 4.5788-2.025 2.1931-1.544 2.7884-1.544 2.1629-1.2375 3.4836-2.75 3.2464-3.2322 4.2794-3.8214 2.0758-1.6644 2.3174-2.3892-0.01737-1.0355-0.57546-0.69062-12.204 1.1077-25.88 1.695-26.059 1.5293-27.518 2.0932c-2.1734 0.83997-3.197 2.5925-5.6621 9.6942-2.7514 7.9266-3.5954 11.719-3.2957 14.81 0.22806 2.3517 8.5444 4.5962 18.371 4.9582 11.841 0.4362 14.732 1.7247 17.61 7.8481 4.0556 8.6279 3.3718 10.572-10.285 29.236-15.466 21.136-21.585 37.859-21.585 58.987 0 35.157 16.835 68.459 43.553 86.157 6.9738 4.6192 24.308 11.073 32.678 12.167 3.9977 0.52227 10.796 1.6373 15.107 2.4778s10.247 1.5282 13.191 1.5282c2.9676 0 5.671 0.51448 6.0665 1.1545 0.47214 0.76393 0.27068 0.88081-0.59549 0.34549s-1.0676-0.41844-0.59549 0.34549c0.39244 0.63498 2.1495 1.1994 3.9045 1.2542s4.316 0.43099 5.691 0.83592c3.1434 0.92572 5.2425 0.16668 12.607-4.5585zm2.4105-18.127c0.0095-0.4125 1.4657-1.7625 3.2359-3s2.6318-2.25 1.9146-2.25c-0.85867 0-0.51234-1.0822 1.0141-3.1688 16.744-22.888 23.64-35.21 29.191-52.152 5.396-16.47 6.0323-20.624 6.0786-39.679 0.03959-16.319-0.13146-17.99-2.535-24.768-2.7096-7.6409-2.2515-10.065 1.6212-8.5792 1.947 0.74712 2.0079 0.90852-2.2294-5.9027-3.7798-6.0757-0.3742-4.4056 5.0197 2.4618 6.2685 7.9808 10.729 17 14.235 28.788 2.543 8.5487 2.8054 10.797 2.6204 22.456-0.44047 27.752-8.6559 47.162-28.165 66.544-10.353 10.286-12.821 11.966-26.295 17.897-5.296 2.3314-5.7309 2.4345-5.706 1.3528zm-111.02-107.3c0-1.5878 4.9982-19.043 6.1262-21.394 0.96294-2.0074 0.95064-2.0097-0.57102-0.11042-0.85535 1.0676-1.5552 2.2942-1.5552 2.7258s-0.92192 2.2581-2.0487 4.0589l-2.0487 3.2742 0.63292-4c1.0248-6.4765 2.5198-10.698 5.5835-15.765 3.3423-5.5281 3.6219-6.7155 1.0286-4.3686-1.0188 0.92198-3.5278 5.3792-5.5756 9.905s-4.3535 9.5787-5.1238 11.229l-1.4005 3 0.39797-4.3168c0.49741-5.3955 9.983-25.183 12.072-25.183 0.81524 0 1.4822 0.69639 1.4822 1.5475s3.5254-2.0739 7.8341-6.5c7.2718-7.4699 10.166-9.4828 10.166-7.0706 0 0.53732-1.1211 1.7115-2.4914 2.6094s-2.1981 2.1457-1.8397 2.773 0.30404 0.82756-0.12094 0.44494c-0.9494-0.85481-6.586 4.2651-6.8866 6.2553-0.11966 0.7922-0.49303 1.8904-0.82969 2.4404s-1.6051 2.7788-2.8187 4.9528c-1.8959 3.3963-1.9485 3.7483-0.37341 2.5 1.0082-0.79904 2.6498-2.3528 3.648-3.4528s0.42214 0.475-1.2801 3.5c-4.8304 8.584-8.4763 16.893-10.868 24.768-2.0162 6.6381-3.139 8.8476-3.139 6.1776zm141.9-33.36c-3.8616-4.5803-2.4946-6.5557 1.7138-2.4767 3.6819 3.5686 4.0472 4.4435 2.1376 5.1197-0.6875 0.24344-2.4206-0.94592-3.8514-2.643zm-66.595 162.1c-0.27598-0.44823-1.6947-0.73805-3.1526-0.64404s-2.8758 0.10118-3.1508 0.01593-2.975-0.32332-6-0.52905c-11.795-0.80216-24.144-4.1245-35.038-9.4262-12.484-6.0756-14.325-7.2621-22.09-14.238-7.6535-6.8752-9.2066-7.8996-8.268-5.4534 0.33301 0.8678 0.89582 1.4268 1.2507 1.2422s1.4327 0.49299 2.3952 1.5058 1.455 1.8414 1.0945 1.8414c-0.9736 0 4.1616 4.3977 12.935 11.077 4.2787 3.2576 8.2162 5.9228 8.75 5.9228s0.97057 0.47656 0.97057 1.059 0.36929 0.83078 0.82065 0.55182 2.235 0.35293 3.9637 1.4042c4.809 2.9245 14.257 5.01 26.562 5.8631 13.628 0.94477 19.62 0.88374 18.957-0.19308zm3.884 0.63185c-0.72188-0.28887-1.5844-0.25335-1.9167 0.07894s0.25834 0.56864 1.3125 0.52522c1.165-0.04798 1.4019-0.28494 0.60417-0.60416zm-110.47-5.8676c17.146-7.5669 23.011-11.499 16.057-10.765-2.881 0.30399-3.0051 0.22702-1.0269-0.63701 2.7401-1.1968 2.7604-1.5217 0.30995-4.963-3.7629-5.2845-12.977-24.693-15.943-33.584-4.2768-12.818-6.2102-24.001-6.8362-39.544-0.46094-11.444-0.28585-14.046 1.1295-16.783 0.92126-1.7815 2.1059-2.9729 2.6324-2.6474s0.95741-0.28622 0.95741-1.3592 0.92588-6.5695 2.0575-12.214c1.6706-8.3337 1.8117-10.424 0.75-11.115-0.99973-0.65138-0.71902-1.3158 1.1925-2.8223 1.4159-1.116 1.9122-1.98 1.1444-1.9926-0.74561-0.01223-2.6926 1.1028-4.3267 2.4778s-3.499 2.4821-4.1444 2.4603c-1.6512-0.05588 8.2103-8.9603 9.9235-8.9603 0.77179 0 1.4032-0.68148 1.4032-1.5144 0-1.182-1.3351-0.84046-6.0822 1.5559-3.3452 1.6887-6.6077 2.8908-7.25 2.6715s1.0822-1.5736 3.8322-3.0094c5.6186-2.9335 5.6327-3.4927 0.02905-1.1513-6.8198 2.8495-6.1228 0.80406 0.97095-2.8491 7.6463-3.9377 7.5428-4.9424-0.16709-1.6216-6.2072 2.6736-12.67 4.9148-13.057 4.528-0.16599-0.16599 2.9664-1.828 6.961-3.6935 5.5915-2.6112 6.7323-3.4697 4.9577-3.7307-1.2678-0.18646-2.8428 0.07195-3.5 0.57425s-3.895 1.9604-7.195 3.2403-6.45 2.6336-7 3.0083c-1.5452 1.0527-4.5 1.988-4.5 1.4244 0-0.44471 14.274-7.6425 17.33-8.739 0.64364-0.23091 0.89404-0.72016 0.55644-1.0872-0.58873-0.64011-7.1409 1.8079-19.386 7.2431-3.692 1.6387 2.2404-2.2486 8.2404-5.3996 3.9822-2.0914 7.0638-3.9791 6.8479-4.1949s-4.7626 1.6635-10.104 4.1763c-9.9973 4.7032-12.098 5.3703-10.923 3.469 0.42622-0.68964-0.20439-0.62911-1.691 0.16229-7.301 3.8868-23.562 19.866-28.097 27.611-3.5106 5.9947-7.7322 16.4-9.8698 24.327-1.8432 6.8352-1.4952 27.163 0.60778 35.5 2.3724 9.4053 8.5269 23.393 13.104 29.785 8.3256 11.624 23.46 23.292 36.925 28.469 12.801 4.9211 15.435 5.1138 23.179 1.6962zm6.5296 0.88841c-0.6875-0.27741-1.8125-0.27741-2.5 0s-0.125 0.50439 1.25 0.50439 1.9375-0.22698 1.25-0.50439zm6.6008-1.4356c1.7321-0.6038 3.1492-1.4134 3.1492-1.7991s1.575-1.2708 3.5-1.9669 3.5-1.6583 3.5-2.1382c0-0.89882-12.754 4.4831-14.45 6.0978-1.2995 1.2369 0.41917 1.1596 4.3008-0.19357zm15.149-27.78c0-0.48265-0.7101-1.4669-1.578-2.1872s-2.6755-3.4754-4.0168-6.1224-2.7855-4.8128-3.2092-4.8128-0.84194-0.95035-0.92944-2.1119-0.76002-2.849-1.4945-3.75c-8.089-9.9224-13.358-33.274-12.441-55.138 1.0221-24.376 8.7252-43.627 25.162-62.883 6.4432-7.5483 8.5124-12.16 7.4901-16.693-1.5048-6.672-7.0725-10.085-14.222-8.7185-2.6165 0.50018-2.5868 0.55286 1.5355 2.7255 5.5573 2.929 7.4491 7.849 5.1416 13.372-0.84967 2.0336-1.5208 3.9224-1.4914 4.1974s-0.41298 0.5-0.98304 0.5c-1.4108 0-2.9699 2.6807-2.243 3.8568 0.32369 0.52374 0.09158 0.64512-0.51581 0.26974-1.208-0.7466-3.5259 2.7189-2.5028 3.742 0.34732 0.34731 0.10648 0.63148-0.53518 0.63148s-1.1667 0.50972-1.1667 1.1327-0.7875 1.8605-1.75 2.75c-2.7021 2.4972-8.25 11.002-8.25 12.647 0 0.80892-0.47656 1.4708-1.059 1.4708s-0.7809 0.45-0.44098 1 0.06648 1-0.60765 1-0.92959 0.2961-0.56769 0.65799 0.15679 1.2619-0.45578 2-0.77857 1.342-0.36888 1.342 0.30184 0.5625-0.23967 1.25c-1.0815 1.3731-2.7012 6.8344-3.7813 12.75-1.8459 10.11-2.3324 21.197-1.331 30.337 1.6772 15.308 8.8795 41.669 12.512 45.796 0.79034 0.89785 2.8776 4.339 4.6384 7.6469 4.5932 8.6292 9.7014 14.602 9.7014 11.343zm-20.474-120.93c-0.30789-0.30789-1.1148-6.4e-4 -1.7931 0.68278-0.98026 0.98762-0.8654 1.1025 0.5598 0.5598 0.98622-0.37553 1.5412-0.93469 1.2333-1.2426zm3.7235-3.8554c-0.6875-0.27741-1.8125-0.27741-2.5 0s-0.125 0.50439 1.25 0.50439 1.9375-0.22698 1.25-0.50439zm-13.724-2.1446c-0.30789-0.30789-1.1148-6.4e-4 -1.7931 0.68278-0.98026 0.98762-0.8654 1.1025 0.5598 0.5598 0.98622-0.37553 1.5412-0.93469 1.2333-1.2426zm4.4735-29.586c0-0.94863-2.9934-1.4267-3.527-0.56332-0.32508 0.52598 0.33551 0.95633 1.468 0.95633s2.059-0.17686 2.059-0.39301zm-5.4377-1.7079c0.3742-0.60547-0.27424-2.0555-1.441-3.2222l-2.1214-2.1214v2.7222c0 3.3682-1.3083 3.4445-4.7257 0.27573-1.4511-1.3456-3.0804-2.1734-3.6205-1.8396s0.2419 1.6597 1.7378 2.9465c2.8818 2.4788 8.9477 3.2176 10.171 1.2387zm7.1758-1.5896c-0.92977-0.92976-2.0257-1.3553-2.4353-0.94562s-0.08288 1.1635 0.72619 1.6752c2.4346 1.5397 3.5165 1.0778 1.7091-0.72954zm-21.166-8.9185c-0.91688-2.9294-1.2278-3.1638-2.504-1.8876s-1.2309 1.9253 0.36459 5.2268c1.5402 3.187 1.9272 3.4788 2.504 1.8876 0.37525-1.0352 0.21119-3.3872-0.3646-5.2268zm10.428 3.7288c0-0.4454-0.9-1.6243-2-2.6198s-2-2.6668-2-3.714c0-1.0957-0.45347-1.6238-1.0682-1.2439-0.5875 0.3631-0.83215 1.2752-0.54368 2.027s0.09416 1.6328-0.43182 1.9579c-1.5659 0.96778-1.0865 4.3008 0.76785 5.3385 1.7722 0.99176 5.2758-0.16755 5.2758-1.7457zm8.426-3.8698c-0.73604-2.0625-1.358-5.1308-1.3822-6.8185-0.05713-3.9943 2.5021-12.933 5.0622-17.682 2.3615-4.3798 1.2453-4.8713-3.9163-1.7244-4.644 2.8314-6.5885 7.6711-7.8657 19.577-0.5104 4.758-0.35416 5.2396 2.3142 7.1332 1.5739 1.1169 3.7616 2.2561 4.8616 2.5316s2.0595 0.55296 2.1322 0.61676-0.47006-1.5715-1.2061-3.634zm-74.157-2.5517c-0.37574-3.3336 0.22657-5.9736 2.6763-11.73 1.7386-4.0857 3.8121-8.1479 4.6077-9.027 2.9768-3.2893 1.3091-3.2002-2.1142 0.1129-3.4872 3.375-5.9198 7.8123-8.396 15.315-0.97524 2.955-0.97923 4.3713-0.01888 6.6898 1.895 4.575 3.823 3.7667 3.2451-1.3605zm43.731 0.07949v-4.2222l-2.1869 2.1869c-2.1306 2.1306-2.1395 2.2394-0.34501 4.2222 1.013 1.1194 1.9972 2.0353 2.1869 2.0353s0.34501-1.9 0.34501-4.2222zm5.9847 2.4722c-0.00842-0.9625-0.40923-2.372-0.89068-3.1321-0.68809-1.0864-1.0195-0.92789-1.5492 0.74105-0.7183 2.2632-0.03162 4.1411 1.5142 4.1411 0.51754 0 0.93409-0.7875 0.92567-1.75zm9.0153-1.309c0-0.51754-0.45-0.94098-1-0.94098s-1 0.70156-1 1.559 0.45 1.2809 1 0.94098 1-1.0415 1-1.559zm71 1.0133c1.0955-0.74131 0.69092-0.83408-1.5-0.34401-3.6769 0.82247-4.4751 1.3948-1.9167 1.3744 1.0542-0.00842 2.5917-0.47209 3.4167-1.0304zm-82.243-6.5306c-0.98419-0.98418-2.757 0.52669-2.757 2.3496 0 1.5265 0.13153 1.5237 1.6905-0.0352 0.92976-0.92977 1.4097-1.9713 1.0665-2.3144zm75.504-1.0363c-1.1866-0.90921-1.4063-1.6002-0.67337-2.1184 1.4229-1.006 2.4898-5.269 1.3187-5.269-1.3593 0-4.9064 3.8154-4.9064 5.2775 0 0.70263 0.71554 2.2991 1.5901 3.5477 1.2677 1.8099 1.8782 2.0311 3.0111 1.0908 1.2143-1.0078 1.1648-1.3756-0.34009-2.5287zm5.3646-3.9203c-0.30962-0.80686-1.0271-1.467-1.5943-1.467-1.4723 0-1.2803 3.747 0.21862 4.2667s2.1479-0.78737 1.3757-2.7997zm5.3743 1.533c0-0.55-0.675-1-1.5-1s-1.5 0.45-1.5 1 0.675 1 1.5 1 1.5-0.45 1.5-1zm0-5.5c0-1.5556-0.56667-2.5-1.5-2.5s-1.5 0.94444-1.5 2.5 0.56667 2.5 1.5 2.5 1.5-0.94444 1.5-2.5zm5.3076-0.1408c-0.69297-1.8058-2.7039-1.228-3.1158 0.89527-0.22263 1.1476 0.24413 1.4443 1.6808 1.0686 1.2257-0.32052 1.7764-1.0742 1.435-1.9639zm65.297-0.08837c-0.33229-0.33229-0.56864 0.25834-0.52522 1.3125 0.04798 1.165 0.28494 1.4019 0.60416 0.60417 0.28887-0.72187 0.25335-1.5844-0.07894-1.9167zm-57.955-1.955c-0.63665-0.63664-5.6492 0.80599-5.6492 1.6259 0 1.7056 1.3925 1.8472 3.6458 0.37075 1.3291-0.87087 2.2306-1.7694 2.0034-1.9966zm53.903 0.64067c2.0954-1.739 1.788-2.4565-1.0524-2.4565-1.5382 0-2.5151 0.5771-2.5391 1.5-0.02153 0.825-0.72675-0.075-1.5672-2-1.4605-3.3453-1.5914-3.4142-2.9609-1.5589-1.7544 2.3767-1.8088 3.783-0.2082 5.3835 1.4048 1.4048 6.1901 0.90601 8.3277-0.8681zm-61.209-4.1629c0.31733-1.2135 0.33302-2.4503 0.03487-2.7484-0.78406-0.78406-3.4148 3.0872-2.7875 4.1021 0.93489 1.5127 2.1607 0.90986 2.7527-1.3536zm6.8127 1.334c0.36101-0.07019 0.41485-1.0512 0.11965-2.1801-0.72123-2.758-4.663-2.2391-5.078 0.66843-0.28742 2.0139 0.74947 2.33 4.9584 1.5117zm-11.156-1.1866c0-0.58246-0.45-0.7809-1-0.44098s-1 0.81648-1 1.059 0.45 0.44098 1 0.44098 1-0.47656 1-1.059zm18-2.441c2.4467-2.6044 1.7526-3.0764-2.75-1.8697-1.3234 0.35467-2.25 1.3785-2.25 2.4863 0 2.6224 2.2136 2.3494 5-0.61663zm48.965 0.75c-0.01948-0.9625-0.65524-2.8698-1.4128-4.2384l-1.3774-2.4884-1.2187 2.6747c-0.67026 1.4711-0.94863 3.3784-0.61858 4.2384 0.83913 2.1868 4.6723 2.0325 4.6274-0.18623zm5.0354-0.87244c0-0.20766-0.675-0.37756-1.5-0.37756s-1.5 0.7301-1.5 1.6224c0 1.3288 0.27149 1.3971 1.5 0.37756 0.825-0.68469 1.5-1.4148 1.5-1.6224zm-139.88-1.6276c0.7475-1.7875 1.2665-3.5444 1.1532-3.9042-0.35032-1.1134 7.585-3.8458 11.169-3.8458 3.8803 0 6.5616-0.83378 6.5616-2.0404 0-1.1733-13.903-15.104-17.5-17.535-4.7264-3.1941-11.456-5.3406-18.356-5.8549-5.6069-0.41793-6.4142-0.25183-6.8486 1.4089-0.56115 2.1458-6.952 5.021-11.16 5.021-1.5536 0-3.5852 0.84027-4.5146 1.8673-2.9286 3.236-0.77131 9.245 5.7877 16.121 3.0757 3.2245 5.5922 6.5508 5.5922 7.3917 0 0.97501 1.3586 1.7838 3.75 2.2325 5.8412 1.0959 14.343 2.1119 18.879 2.2559 3.7626 0.11949 4.2492-0.15707 5.4878-3.1189zm-32.116-1.1313c0-1.2846-6.7359-3.6187-10.443-3.6187-3.571 0-1.1535 1.8735 4.1928 3.2492 3.1625 0.81377 5.8625 1.5406 6 1.6152s0.25-0.48595 0.25-1.2457zm174.52-2.3611c-0.38615-2.0583-0.92629-4.1052-1.2003-4.5486-0.78866-1.2761-3.0605 1.1202-3.7801 3.9871-0.70644 2.8147 0.58304 4.2619 3.8212 4.2885 1.6099 0.01324 1.7665-0.49007 1.1592-3.7271zm-63.521 0.24238c0-1.5556-0.56667-2.5-1.5-2.5-0.825 0-1.5 0.4132-1.5 0.91821s-0.27314 1.63-0.60699 2.5c-0.43514 1.134-0.01045 1.5818 1.5 1.5818 1.5808 0 2.107-0.62435 2.107-2.5zm5.4442 0.59024c0.64282-1.0401-0.33362-4.098-1.3012-4.0749-1.7619 0.04196-3.3646 1.965-2.8201 3.3838 0.66563 1.7346 3.2125 2.1617 4.1213 0.69117zm62.622-0.12543c2.6426-1.4143 2.427-2.6375-0.56574-3.2096-2.0958-0.40063-2.5-0.0961-2.5 1.8834 0 2.6553 0.322 2.7946 3.0657 1.3261zm-11.462-2.694c-0.33229-0.33229-0.56864 0.25833-0.52522 1.3125 0.04798 1.1649 0.28494 1.4019 0.60416 0.60417 0.28887-0.72187 0.25335-1.5844-0.07894-1.9167zm-181.23 0.92932c0.27188-0.43992-0.37656-1.3437-1.441-2.0085-1.3681-0.85438-1.9353-0.88169-1.9353-0.09316 0 0.6135-0.66059 0.86197-1.468 0.55215s-1.7129-0.16703-2.0122 0.31733 0.24874 1.0875 1.218 1.3403c2.9636 0.77304 5.1195 0.73169 5.6385-0.10817zm137.12-1.2002c1.7729-1.9591 1.7466-2-1.286-2-3.2114 0-4.7833 1.2698-3.714 3 0.97821 1.5828 3.0349 1.1714 5-1zm-131.31-0.68311c-0.72187-0.28887-1.5844-0.25334-1.9167 0.07895s0.25833 0.56864 1.3125 0.52522c1.1649-0.04798 1.4019-0.28494 0.60417-0.60417zm-2.1875-2.7173c0-0.65253-1.9125-1.708-4.25-2.3454-3.6594-0.99794-4.4242-0.92989-5.5038 0.48966-1.7721 2.3303 0.02336 3.7235 2.6913 2.0883 1.8789-1.1516 2.3049-1.1006 3.1443 0.37636 1.0367 1.8242 3.9181 1.3764 3.9181-0.60886zm124.79-1.8101c0.06623-2.3292-0.16229-2.8096-0.83251-1.75-1.1631 1.8388-1.2302 4.9605-0.10659 4.9605 0.4663 0 0.8889-1.4447 0.9391-3.2105zm66.213 0.74567c0-1.5426-0.84186-2.9028-2.25-3.6355-1.2375-0.64385-1.9412-0.83841-1.5638-0.43236s0.29361 1.7707-0.18616 3.0326c-0.99587 2.6193-0.4507 3.5 2.1667 3.5 1.2819 0 1.8333-0.74136 1.8333-2.4648zm5.0201 0.94065c1.4663-1.7667 1.0745-2.3799-1.8848-2.9498-1.5332-0.29527-2.1353 0.08954-2.1353 1.3647 0 3.262 1.9803 4.0428 4.0201 1.5851zm-124.02-1.4758c1.1-1.1 2-2.675 2-3.5s-0.88889-1.5-2-1.5c-1.3049 0-2 0.66667-2 1.9182 0 1.055-0.27314 2.63-0.60699 3.5-0.82589 2.1522 0.20134 1.9874 2.607-0.41821zm6.5 1c-0.33992-0.55-1.2399-1-2-1s-1.6601 0.45-2 1c-0.35191 0.5694 0.50929 1 2 1s2.3519-0.4306 2-1zm51.725 0.44206c0.89801-0.89801-1.569-6.4939-2.6973-6.1183-1.2633 0.42054-1.8898 3.2891-1.1433 5.2347 0.55056 1.4347 2.7772 1.947 3.8406 0.88365zm-61.407-4.8503c-0.2322-0.98465-0.95758-1.1052-2.7052-0.44977-2.3272 0.87284-2.3414 0.94706-0.56087 2.9146 1.6079 1.7767 1.9325 1.8306 2.7052 0.44977 0.48297-0.86303 0.73536-2.1746 0.56086-2.9146zm117.18 1.6634c0-0.275-0.675 0.0602-1.5 0.74489s-1.5 1.4699-1.5 1.7449 0.675-0.0602 1.5-0.74489 1.5-1.4699 1.5-1.7449zm-50.09-0.3283c2.867-2.3871 1.7845-4.0074-2.1601-3.2333-2.6074 0.51168-3.7242 2.9989-2.0833 4.6398 0.99518 0.99518 1.5994 0.7949 4.2434-1.4065zm-146.45-0.99591c-0.94037-1.5215-2.4428-1.0568-1.8211 0.56335 0.31537 0.82184 0.98359 1.2408 1.4849 0.9309s0.65263-0.98226 0.3362-1.4943zm89.043 1.0691c-0.33992-0.55-1.068-1-1.618-1s-0.72189 0.45-0.38197 1 1.068 1 1.618 1 0.72189-0.45 0.38197-1zm-109.5-1.5c0-0.825-0.675-1.5-1.5-1.5-1.5616 0-1.984 1.1827-0.83333 2.3333s2.3333 0.72824 2.3333-0.83333zm28.5 0.5c-0.33992-0.55-1.604-0.99311-2.809-0.98469-1.7812 0.01245-1.9105 0.1966-0.69098 0.98469 1.9701 1.2732 4.2869 1.2732 3.5 0zm69.66-6.3327c-1.5458-1.7494-1.6557-1.6925-2.4182 1.25-0.9516 3.6724-2.6736 4.1774-1.9864 0.58266 0.48324-2.5279-0.29899-2.996-3.1671-1.8954-1.3836 0.53092-1.3297 0.94965 0.44219 3.438l2.0176 2.8335 3.3656-2.188c3.1551-2.0512 3.2644-2.3027 1.7462-4.0207zm128.84 4.3327c0-1.1111-0.66667-2-1.5-2-1.5224 0-2.0513 2.1154-0.83333 3.3333 1.2678 1.2678 2.3333 0.65891 2.3333-1.3333zm8-1.0388c0-1.4254-1.9163-2.1225-4.009-1.4584-1.0951 0.34757-1.991 1.4782-1.991 2.5125 0 1.6553 0.35942 1.7553 3 0.83479 1.65-0.57519 3-1.4252 3-1.889zm-212.23-0.96119c-1.4116-2.2604-2.3368-2.5066-3.337-0.8882-0.72651 1.1755 1.2097 2.8471 3.3276 2.8729 1.0082 0.01227 1.01-0.38249 0.00945-1.9847zm164.73-0.063c13.811-2.329 42.343-10.38 44.527-12.564 0.52454-0.52454 1.2453-3.0813 1.6017-5.6816 0.51646-3.768 0.28392-5.1302-1.1454-6.7096-0.98638-1.0899-2.2862-1.9845-2.8884-1.9879s-2.354-0.66284-3.8927-1.4655c-6.1965-3.2321-23.811 3.2874-35.538 13.153-1.8346 1.5435-3.6764 3.034-4.0928 3.3124-1.0408 0.69572-7.8743 9.769-9.1434 12.14-0.90262 1.6866-0.74243 1.8704 1.2694 1.4566 1.2663-0.26042 5.4524-1.0047 9.3024-1.6539zm-188.25-3.687c-0.25773-0.6875-0.87046-1.25-1.3616-1.25-1.0633 0-1.2043 4.3554-0.17434 5.3853 0.9096 0.9096 2.1626-2.4638 1.536-4.1353zm-4.2546 1.5833c0-1.1917-0.12734-1.9792-0.28297-1.75s-0.88573 1.2042-1.6224 2.1667c-1.1466 1.498-1.1058 1.75 0.28297 1.75 0.99738 0 1.6224-0.83473 1.6224-2.1667zm8.5593-1.7374c-1.2272-1.9857-2.5593-1.1434-2.5593 1.6183 0 2.5009 0.12722 2.5871 1.6183 1.096 0.89008-0.89008 1.3135-2.1115 0.94098-2.7143zm23.066 0.37105c-0.72811-1.8974-3.6257-1.9108-3.6257-0.0167 0 1.758 3.3359 3.8879 3.8443 2.4545 0.18938-0.53395 0.091-1.631-0.21862-2.4378zm138.56 3.0095c1.2601-1.2601-0.51588-5.4765-2.3068-5.4765-1.426 0-1.8834 0.72856-1.8834 3 0 2.2424 0.46296 3 1.8333 3 1.0083 0 2.0689-0.23558 2.3568-0.5235zm7.8098-4.137c0-1.582-4.5828-1.8236-5.5296-0.2916-0.35619 0.57634-0.39792 1.6986-0.09273 2.4939 0.44936 1.171 1.0368 1.2265 3.0886 0.2916 1.3936-0.63494 2.5337-1.7572 2.5337-2.4939zm65 2.6605c0-0.55-0.45-1-1-1s-1 0.45-1 1 0.45 1 1 1 1-0.45 1-1zm-6.1337-0.89623c0.9465-0.59962 1.0795-1.3782 0.43284-2.5337-0.81566-1.4575-1.0801-1.3463-2.0949 0.88091-1.2022 2.6385-0.69304 3.1448 1.6621 1.6528zm-211.87-1.0448c0-1.6764-1.7735-2.0915-2.3638-0.55327-0.3483 0.90766 0.00313 1.4943 0.89522 1.4943 0.80774 0 1.4686-0.42344 1.4686-0.94098zm71.507-1.0476c-0.35034-0.56686 0.05106-0.73451 0.94098-0.39301 1.1044 0.4238 1.5519-0.0211 1.5519-1.5428 0-1.1761-0.69441-2.4048-1.5431-2.7305-1.8658-0.71599-1.9994-0.57914-2.8352 2.9049-0.50785 2.117-0.29645 2.75 0.91834 2.75 0.86794 0 1.3031-0.44485 0.96712-0.98855zm-68.077-4.3339c-1.3101-3.4142-4.023-1.1222-2.8915 2.4429 0.57952 1.8259 0.856 1.9139 2.1013 0.66859 0.79138-0.79138 1.1455-2.1857 0.79023-3.1115zm64.987 2.6793c0.34679-0.90372 0.40581-1.8678 0.13115-2.1425-0.79607-0.79608-3.5839 1.918-2.9777 2.8989 0.85809 1.3884 2.1558 1.0436 2.8465-0.75643zm9.771 0.96001c-0.72188-0.28887-1.5844-0.25334-1.9167 0.07895s0.25834 0.56864 1.3125 0.52522c1.165-0.04798 1.4019-0.28494 0.60417-0.60417zm141.18-2.8138c-0.42499-1.1075-1.0278-1.2175-2.4628-0.44956-1.9522 1.0448-2.3784 2.1348-1.2686 3.2446 1.1242 1.1242 4.3174-1.2678 3.7313-2.7951zm-235.39-0.25306c-0.03013-2.6056-0.1072-2.6504-1.468-0.85268-1.4464 1.9108-1.1839 3.6027 0.55879 3.6027 0.51754 0 0.92667-1.2375 0.90918-2.75zm6.325-1.2369c-0.7614-2.9116-4.2932-2.6482-4.2932 0.32024 0 3.0596 0.86322 3.8102 3.0413 2.6446 1.1461-0.61338 1.5912-1.6674 1.2519-2.9648zm-11.106 2.3038c-0.72188-0.28887-1.5844-0.25334-1.9167 0.07895s0.25833 0.56864 1.3125 0.52522c1.1649-0.04798 1.4019-0.28494 0.60417-0.60417zm171.81-1.8684c0-2.6422-2.0798-6.7684-2.9545-5.8613-1.0057 1.043-2.0833 7.0418-1.3896 7.7355 0.90358 0.90358 4.344-0.58074 4.344-1.8742zm-142 0.63332c0-0.50502 0.27636-1.6384 0.61414-2.5186 0.51558-1.3436 0.2111-1.4472-1.8972-0.64563-1.3812 0.52514-2.8436 0.64603-3.2496 0.26865s-0.21149 0.32634 0.43236 1.5638c1.1431 2.1971 4.1003 3.1576 4.1003 1.3318zm57.03-0.75856c2.7214-1.6076 2.7783-1.7933 1.3786-4.5-2.342-4.529-3.6898-3.8508-4.8226 2.4268-0.76664 4.2487-0.50524 4.4061 3.4439 2.0732zm91.423-0.48374c3.3777-1.539 3.2128-2.4563-0.57795-3.2145-4.5252-0.90504-4.875-0.81834-4.875 1.2083 0 3.3218 1.4193 3.844 5.453 2.0062zm66.088 0.09398c0.92034-1.4892-0.14673-2.2988-2.0614-1.5641-0.88358 0.33906-1.3264 1.0696-0.98412 1.6235 0.81058 1.3115 2.2151 1.2841 3.0455-0.05947zm-162.97-3.6951c-0.33278-0.33278-1.1563-0.05382-1.83 0.61991-0.96663 0.96663-0.91039 1.4215 0.26667 2.157 1.0626 0.66396 1.589 0.48566 1.83-0.61991 0.18612-0.85357 0.06612-1.8242-0.26667-2.157zm155.92 2.7731c0.35034-0.56686-0.05106-0.73451-0.94098-0.39301-1.7324 0.66479-2.0494 1.3816-0.61096 1.3816 0.51754 0 1.2159-0.44485 1.5519-0.98855zm-195.77-3.0114c0.08606-1.1425-0.4658-2-1.2872-2-0.79082 0-1.4378 0.45857-1.4378 1.019s-1.0125 0.85109-2.25 0.6458-1.6875-0.18087-1 0.05427 1.25 0.84453 1.25 1.3542 1.0292 0.92668 2.2872 0.92668c1.5703 0 2.3344-0.62687 2.4378-2zm-29.725 0c0-0.55-0.64844-1-1.441-1s-1.7191 0.45-2.059 1 0.30852 1 1.441 1 2.059-0.45 2.059-1zm67.394-0.75c1.6036-1.2703 2.0504-2.4149 1.6301-4.1759-0.92255-3.8654-3.0238-3.7663-3.0238 0.14253 0 1.8608-0.54 3.9233-1.2 4.5833-1.8367 1.8367 0.09897 1.4262 2.5937-0.55zm-52.032-0.75c-0.60146-1.5674-3.3616-2.1148-3.3616-0.66667 0 1.2217 1.1494 2.1667 2.6353 2.1667 0.74645 0 1.0564-0.64001 0.72634-1.5zm48.638-3.2863v-3.6682l-2.75 2.7828c-2.6568 2.6884-2.6857 2.8306-0.85268 4.1952 2.6012 1.9365 3.6027 1.0165 3.6027-3.3097zm171.54 3.7198c1.0763-1.7414-0.14952-2.1102-1.5211-0.45763-0.78875 0.95038-0.86462 1.5242-0.20152 1.5242 0.58488 0 1.36-0.47994 1.7226-1.0665zm-69.201-4.6835c-0.34196-2.6125-0.73202-4.8862-0.8668-5.0526-0.39558-0.48847-4.4732 6.437-4.4732 7.5973 0 0.9903 1.8802 1.8206 4.7309 2.0893 0.89609 0.08445 1.0618-1.1759 0.60912-4.634zm66.66 2.75c0.90057-1.6827 0.76049-2-0.88303-2-3.6262 0-5.2919 1.0842-4.02 2.6168 1.6321 1.9666 3.6568 1.7119 4.9031-0.61678zm-59.934-0.03518c2.6519-1.4192 2.4642-4.5895-0.31574-5.3345-4.1429-1.1103-4.75-0.7435-4.75 2.8697 0 3.7492 1.3964 4.4286 5.0657 2.4648zm-148.07-1.2982c0-0.73333-0.65564-1.3333-1.457-1.3333s-1.6872 0.6-1.9686 1.3333c-0.31959 0.83285 0.2273 1.3333 1.457 1.3333 1.0827 0 1.9686-0.6 1.9686-1.3333zm4-0.22568c0-0.85746-0.45-1.2809-1-0.94098s-1 1.0415-1 1.559 0.45 0.94098 1 0.94098 1-0.70156 1-1.559zm29.833-1.8219c0.43937-2.266-1.6082-4.6424-3.4057-3.9527-0.78479 0.30115-1.4269 1.4476-1.4269 2.5476 0 1.3669-0.4748 1.8178-1.5 1.4244-0.825-0.31658-1.5-0.16962-1.5 0.32659 0 0.86338 4.408 1.9107 6.5 1.5444 0.55-0.09631 1.1497-0.94694 1.3326-1.8903zm15.167 2.0034c0-0.20766-0.675-0.93776-1.5-1.6224-1.2285-1.0196-1.5-0.95124-1.5 0.37756 0 0.89234 0.675 1.6224 1.5 1.6224s1.5-0.1699 1.5-0.37756zm-38.71-2.6224c-0.28766-1.1-0.69553-2-0.90638-2s-0.38337 0.9-0.38337 2 0.40787 2 0.90638 2 0.67103-0.9 0.38337-2zm14.527-0.07836c1.0139-1.6236 1.0352-2.395 0.09717-3.5252-1.041-1.2544-1.4478-1.2233-3.0574 0.23335-2.1447 1.9409-2.4076 3.9812-0.60662 4.708 2.0385 0.82255 2.2118 0.75375 3.5669-1.4161zm-39.524-0.81521c0.43581-0.43516 0.12407-1.3458-0.69276-2.0238-1.2108-1.0048-2.1886-0.73767-5.2924 1.446l-3.8072 2.6786 4.5-0.6548c2.475-0.36014 4.8566-1.0108 5.2924-1.446zm31.708-0.04742c0-2.7833-1.7179-3.4546-2.9498-1.1528-1.4548 2.7184-1.3396 3.0938 0.94983 3.0938 1.3131 0 2-0.66667 2-1.941zm-41-1.107c0-0.4587-0.48921-1.1363-1.0871-1.5059-1.3885-0.85813-3.346 1.044-2.4937 2.423 0.70978 1.1484 3.5808 0.41308 3.5808-0.91717zm235.25 0.79797c0.25773-0.6875 0.16836-2.092-0.19861-3.1212-0.61011-1.711-0.81221-1.6499-2.3616 0.71482-0.93193 1.4223-1.6944 2.8268-1.6944 3.1212 0 1.1172 3.8077 0.47742 4.2546-0.71482zm-215.25-2.309c0-0.79254 0.43588-1.441 0.96861-1.441s0.70452-0.68823 0.38173-1.5294c-0.5073-1.322-0.76994-1.2881-1.9368 0.25-1.5708 2.0705-1.8838 5.6881-0.41354 4.7794 0.55-0.33992 1-1.2665 1-2.059zm3.9799 1.0348c-0.69572-0.83829-1.4709-1.3182-1.7226-1.0665-0.69349 0.6935 0.71555 2.5907 1.9241 2.5907 0.6631 0 0.58723-0.57378-0.20152-1.5242zm37.012-1.5022c-2.4253-1.5333-3.138-1.1156-1.9342 1.1337 0.84938 1.5871 1.4115 1.8237 2.2768 0.95836s0.78074-1.3818-0.34264-2.092zm169.09 0.21855c-0.62845-0.20948-1.9027-0.08922-2.8316 0.26724-1.4249 0.54679-1.4641 0.78712-0.25055 1.5371 0.89381 0.5524 1.9659 0.45122 2.8316-0.26724 0.96097-0.79753 1.0387-1.2744 0.25055-1.5371zm-238.62 0.87688c0.31643-0.512 0.11396-1.216-0.44993-1.5646-1.4256-0.88108-5.1646 0.43211-4.4629 1.5674 0.7435 1.203 4.1688 1.201 4.9128-0.0029zm20.856-2.1562c-1.3278-1.3278-2.7993 0.49104-1.759 2.1743 0.48382 0.78284 0.97617 0.78284 1.759 0s0.78284-1.3914 0-2.1743zm-7.7311 1.0871c0.23002 0 0.41821-0.39754 0.41821-0.88342s-1.125-1.0985-2.5-1.3613c-2.7812-0.53167-2.7472-0.56298-1.871 1.7204 0.35313 0.92025 1.2662 1.3947 2.0818 1.0818 0.79901-0.30661 1.6409-0.55747 1.871-0.55747zm24.031 0.18216c-0.278-0.44982 0.37044-1.4492 1.441-2.2208s1.9315-2.3161 1.9132-3.4322c-0.03255-1.9853-0.07267-1.9821-1.8546 0.15192-1.6796 2.0115-1.9474 2.055-3.4429 0.55952-0.8919-0.8919-1.8317-1.4116-2.0884-1.1549-0.49428 0.49428 3.2906 6.9142 4.0763 6.9142 0.25345 0 0.23336-0.36803-0.04464-0.81784zm23.734-2.2595c-2.3108-0.84022-2.7661-0.45736-1.9587 1.6469 0.53372 1.3908 0.889 1.4453 2.2205 0.34022 1.4334-1.1896 1.4083-1.3798-0.26183-1.9871zm121.3-1.2419c0.2896-4.5269-0.67453-4.6299-4.1935-0.44784l-2.7203 3.2329 2.3814 0.66202c3.6479 1.0141 4.2776 0.53515 4.5324-3.4471zm6.2023 3.4311c1.588-1.0063 0.14786-4.5137-2.2277-5.4253-1.9543-0.74992-2.6256 0.13987-2.6256 3.4801 0 2.9422 2.0091 3.7474 4.8532 1.9452zm-192.85-3.088c0-1.4802-1.4928-1.9569-3.0478-0.97316-1.1714 0.74101-1.1868 0.92167-0.07981 0.93402 1.1633 0.01298 1.1633 0.26889 0 1.679-1.2445 1.5086-1.1627 1.5519 0.87756 0.46482 1.2375-0.6594 2.25-1.6065 2.25-2.1047zm9.2932 1.6544c0.69397-1.8085-3.184-4.1874-4.5688-2.8027-0.71963 0.71963-0.64564 1.5146 0.24034 2.5821 1.5697 1.8914 3.6467 1.9972 4.3284 0.22062zm48.707-0.17823c1.0528-1.2685 0.84012-1.5-1.3776-1.5-2.5351 0-3.3349 0.95418-1.9558 2.3333 1.0348 1.0348 1.9787 0.79889 3.3333-0.83333zm139-0.5c0-0.55-0.45-1-1-1s-1 0.45-1 1 0.45 1 1 1 1-0.45 1-1zm48.429-1.5714c1.9677-1.9677 2.0389-4.4286 0.12813-4.4286-1.3916 0-4.5567 3.6276-4.5567 5.2225 0 1.3452 2.7895 0.84517 4.4286-0.79393zm-43.429-1.8136c0-1.4051-0.97299-3.0225-2.3683-3.9368-2.2485-1.4733-2.428-1.4208-3.5479 1.0371-1.4674 3.2205-0.37708 4.3113 5.1662 5.1686 0.4125 0.0638 0.75-0.95725 0.75-2.269zm-199 0.38499c0-0.55-0.47656-1-1.059-1s-0.7809 0.45-0.44098 1 0.81648 1 1.059 1 0.44098-0.45 0.44098-1zm203.19-0.68311c-0.72188-0.28887-1.5844-0.25334-1.9167 0.07895s0.25834 0.56864 1.3125 0.52522c1.165-0.04798 1.4019-0.28494 0.60417-0.60417zm25.812 0.30556c0-0.20766-0.7875-0.99516-1.75-1.75-1.5861-1.2439-1.6214-1.2085-0.37756 0.37755 1.3064 1.6658 2.1276 2.1955 2.1276 1.3724zm6.2464-2.1312c0.38817-2.0306 0.21979-2.2931-0.88342-1.3776-1.5226 1.2637-1.8462 3.8863-0.47958 3.8863 0.48589 0 1.0992-1.1289 1.363-2.5087zm-195.25-0.05027c0-0.24254-0.70156-0.44098-1.559-0.44098s-1.2764 0.45734-0.9309 1.0163c0.57081 0.92358 2.4899 0.48015 2.4899-0.57533zm151.21-0.76954c0.37953-1.9854 0.10196-2.263-1.8834-1.8834-2.6094 0.49882-2.8908 1.2497-1.1286 3.012s2.5132 1.4809 3.012-1.1286zm49.313-2.6304c-0.84268-1.3635-3.4424 1.5619-3.4936 3.9312-0.0234 1.0833 0.52862 0.9118 2.0896-0.64913 1.1667-1.1668 1.7985-2.6437 1.404-3.2821zm-32.456 2.3752c1.494-1.8002 0.24073-4.714-2.238-5.2032-1.7181-0.33908-4.3682 4.1097-3.3905 5.6916 0.99264 1.6061 4.115 1.3352 5.6285-0.48847zm5.4304 0.58382c0.33992-0.55 0.40328-1 0.1408-1s-1.189-0.27314-2.059-0.60699c-1.038-0.39831-1.5818-0.05452-1.5818 1 0 1.7642 2.5152 2.2004 3.5 0.60699zm17.5-2.5c0-3.9827-0.92842-4.4455-2.8252-1.4083-1.1227 1.7978-1.0511 2.2851 0.50945 3.4682 2.4165 1.8319 2.3157 1.9215 2.3157-2.0599zm-29.569-1.6623c0.86767-1.7393 1.4237-3.3162 1.2356-3.5043s-1.7926 0.38162-3.5654 1.2661c-3.084 1.5385-3.1492 1.6901-1.5074 3.5043 0.94386 1.043 1.8384 1.8963 1.9879 1.8963s0.98168-1.423 1.8493-3.1623zm23.555 2.4123c-0.0378-2.0762-1.3281-5.25-2.1344-5.25-1.5795 0-2.1311 2.9587-0.84141 4.5127 1.3074 1.5753 2.9987 1.9943 2.9758 0.73727zm-6.8228-3.25c-0.54034-4.0149-1.8888-4.6067-4.6296-2.0319-2.3233 2.1826-2.3751 2.4323-0.76325 3.6768 2.8364 2.1899 5.7878 1.2897 5.3929-1.6449zm18.069 0.62074c1.6035-1.2176 1.5476-1.3999-0.75-2.4468-2.2799-1.0388-2.4825-0.92877-2.4825 1.3474 0 2.7793 0.70466 3.0189 3.2325 1.0993zm-10.063-5.3809c-4.6981-1.677-8.914-0.31785-6.5006 2.0956 0.36787 0.36787 1.4814-0.06652 2.4746-0.96531 1.6924-1.5316 1.872-1.46 2.861 1.1414 1.0321 2.7145 1.0952 2.7339 2.8753 0.88198 1.7694-1.8408 1.7218-1.9286-1.7103-3.1537zm-14.808 2.2601c0.39152-1.0203-0.05398-1.5-1.393-1.5-1.0832 0-1.9686 0.67464-1.9686 1.5 0 0.825 0.62686 1.5 1.393 1.5s1.652-0.675 1.9686-1.5z"/>
</svg>
