<?xml version="1.0" encoding="UTF-8"?>
<svg viewBox="0 0 647.79559 58.499722" xmlns="http://www.w3.org/2000/svg" xmlns:xlink="http://www.w3.org/1999/xlink">
 <defs>
  <filter id="f" x="-.55714" y="-.0161" width="2.1143" height="1.0322">
   <feGaussianBlur stdDeviation="7.98078"/>
  </filter>
  <filter id="e" x="-.08919" y="-.93457" width="1.1784" height="2.8691">
   <feGaussianBlur stdDeviation="54.49059"/>
  </filter>
  <linearGradient id="c">
   <stop stop-color="#f2f2f2" offset="0"/>
   <stop stop-color="#f2f2f2" stop-opacity="0" offset="1"/>
  </linearGradient>
  <linearGradient id="d" x1="-129.04" x2="-130.26" y1="1359.5" y2="1295.2" gradientUnits="userSpaceOnUse">
   <stop stop-color="#fff" offset="0"/>
   <stop stop-color="#fff" stop-opacity="0" offset="1"/>
  </linearGradient>
  <linearGradient id="b" x1="-195.79" x2="-135.49" y1="-22.355" y2="-33.705" gradientUnits="userSpaceOnUse" xlink:href="#c"/>
  <linearGradient id="a" x1="-195.79" x2="-135.49" y1="-23.064" y2="-34.414" gradientTransform="matrix(-1 0 0 1 -286.19 .70938)" gradientUnits="userSpaceOnUse" xlink:href="#c"/>
 </defs>
 <g transform="translate(686.32 -393.91)">
  <path transform="matrix(.37492 0 0 -.10197 10.532 603.45)" d="m-1702.1 1612.1h1414.6a25.815 25.815 0 0 1 25.815 25.815v88.303a25.815 25.815 0 0 1 -25.815 25.815h-1414.6a25.815 25.815 0 0 1 -25.815 -25.815v-88.303a25.815 25.815 0 0 1 25.815 -25.815" fill="#1a1a1a" filter="url(#e)"/>
  <path transform="matrix(.009187 .99996 -.99996 .009447 0 0)" d="m403.17 77.863h20.264a9.9314 9.9314 0 0 1 9.9314 9.9314v512.01a9.9314 9.9314 0 0 1 -9.9314 9.9314h-20.264a9.9314 9.9314 0 0 1 -9.9314 -9.9314v-512.01a9.9314 9.9314 0 0 1 9.9314 -9.9314" fill="#b7741b" opacity=".98077"/>
  <path transform="matrix(.003584 .3901 -.3847 .003634 -219.5 362.49)" d="m163.16-222.16c0 15.302-12.405 27.707-27.707 27.707s-27.707-12.405-27.707-27.707 12.405-27.707 27.707-27.707 27.707 12.405 27.707 27.707z" opacity=".98077"/>
  <path transform="matrix(.002389 .26007 -.25646 .002423 -333.93 381.19)" d="m163.16-222.16c0 15.302-12.405 27.707-27.707 27.707s-27.707-12.405-27.707-27.707 12.405-27.707 27.707-27.707 27.707 12.405 27.707 27.707z" opacity=".98077"/>
  <path transform="matrix(.003584 .3901 -.3847 .003634 -453.61 364.7)" d="m163.16-222.16c0 15.302-12.405 27.707-27.707 27.707s-27.707-12.405-27.707-27.707 12.405-27.707 27.707-27.707 27.707 12.405 27.707 27.707z" opacity=".98077"/>
  <path transform="matrix(.003584 .3901 -.3847 .003634 -408.1 364.27)" d="m163.16-222.16c0 15.302-12.405 27.707-27.707 27.707s-27.707-12.405-27.707-27.707 12.405-27.707 27.707-27.707 27.707 12.405 27.707 27.707z" opacity=".98077"/>
  <path transform="matrix(.002389 .26007 -.25646 .002423 -470.47 382.48)" d="m163.16-222.16c0 15.302-12.405 27.707-27.707 27.707s-27.707-12.405-27.707-27.707 12.405-27.707 27.707-27.707 27.707 12.405 27.707 27.707z" opacity=".98077"/>
  <path transform="matrix(.003584 .3901 -.3847 .003634 -544.63 365.56)" d="m163.16-222.16c0 15.302-12.405 27.707-27.707 27.707s-27.707-12.405-27.707-27.707 12.405-27.707 27.707-27.707 27.707 12.405 27.707 27.707z" opacity=".98077"/>
  <path transform="matrix(.003584 .3901 -.3847 .003634 -590.14 365.99)" d="m163.16-222.16c0 15.302-12.405 27.707-27.707 27.707s-27.707-12.405-27.707-27.707 12.405-27.707 27.707-27.707 27.707 12.405 27.707 27.707z" opacity=".98077"/>
  <path transform="matrix(.001394 .15171 -.28838 .002724 -615.01 382.52)" d="m163.16-222.16c0 15.302-12.405 27.707-27.707 27.707s-27.707-12.405-27.707-27.707 12.405-27.707 27.707-27.707 27.707 12.405 27.707 27.707z" opacity=".98077"/>
  <path transform="matrix(.002795 .30422 -.3847 .003634 -91.511 454.18)" d="m-64.65 1314c0 15.302-29.634 27.707-66.189 27.707s-66.189-12.405-66.189-27.707 29.634-27.707 66.189-27.707 66.189 12.405 66.189 27.707z" fill="#2b0000" fill-opacity=".92157" opacity=".98077"/>
  <path transform="matrix(.002235 .24326 -.26843 .002536 -245.02 447.72)" d="m-64.65 1314c0 15.302-29.634 27.707-66.189 27.707s-66.189-12.405-66.189-27.707 29.634-27.707 66.189-27.707 66.189 12.405 66.189 27.707z" fill="#b7741b" fill-opacity=".98039" opacity=".98077"/>
  <path transform="matrix(.003584 .3901 -.36881 .003484 -93.906 469.94)" d="m-149.98 1245.8c17.437-397.55 43.775-795.76 7.1944-1189.3-26.18 401.16-13.831 794.69-7.1944 1189.3z" fill="#fff" fill-opacity=".27976" filter="url(#f)"/>
  <path d="m-174.06 414.9c-0.10376-11.293-3.084-20.12-7.7642-20.076-0.64679 6e-3 -2.1677-0.0945-2.7699 0.24239 3.7933 2.0296 6.6885 10.137 6.7779 19.869s-2.9243 18.073-6.6797 20.174c0.71036 5e-3 0.41304-7e-3 3.0766-0.0206 3.5034-0.0178 7.463-8.8953 7.3592-20.189z" fill="#c9c0bb" opacity=".98077"/>
  <path d="m-524.41 418.21c-0.10376-11.293-3.084-20.12-7.7642-20.076-0.64679 6e-3 -2.1677-0.0945-2.7699 0.2424 3.7933 2.0296 6.6885 10.137 6.7779 19.869s-2.9243 18.073-6.6797 20.174c0.71033 5e-3 0.41301-7e-3 3.0766-0.0206 3.5034-0.0178 7.463-8.8953 7.3592-20.189z" fill="#c9c0bb" opacity=".98077"/>
  <g transform="matrix(.003584 .3901 -.3847 .003634 -108.36 470.08)">
   <path d="m-142.90213-49.61563c-28.90973,0-51.5625,6.79491-51.5625,19.21875 0,1.67404-.74783,6.19193 0,7.90625-.003.0095.003.02176 0,.03125-.17572.61595-.27939,1.25219-.28125,1.875-.003.88221.11471,5.84638.25,7.5625l.0312-.03125c-.007.12542-.0287.2481-.0312.375-.0321,1.60109-.062,7.5035-.0312,9.125 5.29414-9.8112 26.61398-16.90625 51.5625-16.90625s46.01837,7.78255 51.3125,17.59375c-.0049-1.65639.03125-8.72496.03125-10.40625 0-.41364-.04259-.79077-.09375-1.1875 .1917-2.47852.09375-6.37791.09375-7.75 0-.26378-.01035-.52367-.03125-.78125-.0017-.02056.0018-.04198 0-.0625 .40624-2.45627.21875-6.96641.21875-8.46875 0-12.42384-22.55902-18.09375-51.46875-18.09375z" fill="#c9c0bb" opacity=".98077"/>
   <path d="m-142.90212-49.61563c-28.90973,0-51.5625,6.79491-51.5625,19.21875 0,1.67404-.74783,6.19193 0,7.90625-.003.0095.003.02176 0,.03125-.17572.61595-.27939,1.25219-.28125,1.875-.003.88221.11471,5.84638.25,7.5625l.0312-.03125c-.007.12542-.0287.2481-.0312.375-.0321,1.60109-.062,7.5035-.0312,9.125 5.29414-9.8112 26.61398-16.90625 51.5625-16.90625s46.01835,7.78255 51.31249,17.59375c-.0049-1.65639.03125-8.72496.03125-10.40625 0-.41364-.04259-.79077-.09375-1.1875 .1917-2.47852.09375-6.37791.09375-7.75 0-.26378-.01035-.52367-.03125-.78125-.0017-.02056.0018-.04198 0-.0625 .40624-2.45627.21875-6.96641.21875-8.46875 0-12.42384-22.55902-18.09375-51.46874-18.09375z" fill="url(#b)" opacity=".98077"/>
   <path d="m-143.285-49.61563c28.90973,0 51.5625,6.79491 51.5625,19.21875 0,1.67404.74783,6.19193 0,7.90625 .003.0095-.003.02176 0,.03125 .17572.61595.27939,1.25219.28125,1.875 .003.88221-.11471,5.84638-.25,7.5625l-.0312-.03125c.007.12542.0287.2481.0312.375 .0321,1.60109.062,7.5035.0312,9.125-5.29414-9.8112-26.61398-16.90625-51.5625-16.90625s-46.01836,7.78255-51.31249,17.59375c.005-1.65639-.0312-8.72496-.0312-10.40625 0-.41364.0426-.79077.0937-1.1875-.1917-2.47852-.0937-6.37791-.0937-7.75 0-.26378.0104-.52367.0312-.78125 .002-.02056-.002-.04198 0-.0625-.40624-2.45627-.21875-6.96641-.21875-8.46875 0-12.42384 22.55902-18.09375 51.46874-18.09375z" fill="url(#a)" opacity=".98077"/>
  </g>
  <g transform="matrix(.003584 .3901 -.3847 .003634 -584.69 474.58)">
   <path d="m-142.90213-49.61563c-28.90973,0-51.5625,6.79491-51.5625,19.21875 0,1.67404-.74783,6.19193 0,7.90625-.003.0095.003.02176 0,.03125-.17572.61595-.27939,1.25219-.28125,1.875-.003.88221.11471,5.84638.25,7.5625l.0312-.03125c-.007.12542-.0287.2481-.0312.375-.0321,1.60109-.062,7.5035-.0312,9.125 5.29414-9.8112 26.61398-16.90625 51.5625-16.90625s46.01837,7.78255 51.3125,17.59375c-.0049-1.65639.03125-8.72496.03125-10.40625 0-.41364-.04259-.79077-.09375-1.1875 .1917-2.47852.09375-6.37791.09375-7.75 0-.26378-.01035-.52367-.03125-.78125-.0017-.02056.0018-.04198 0-.0625 .40624-2.45627.21875-6.96641.21875-8.46875 0-12.42384-22.55902-18.09375-51.46875-18.09375z" fill="#c9c0bb" opacity=".98077"/>
   <path d="m-142.90212-49.61563c-28.90973,0-51.5625,6.79491-51.5625,19.21875 0,1.67404-.74783,6.19193 0,7.90625-.003.0095.003.02176 0,.03125-.17572.61595-.27939,1.25219-.28125,1.875-.003.88221.11471,5.84638.25,7.5625l.0312-.03125c-.007.12542-.0287.2481-.0312.375-.0321,1.60109-.062,7.5035-.0312,9.125 5.29414-9.8112 26.61398-16.90625 51.5625-16.90625s46.01835,7.78255 51.31249,17.59375c-.0049-1.65639.03125-8.72496.03125-10.40625 0-.41364-.04259-.79077-.09375-1.1875 .1917-2.47852.09375-6.37791.09375-7.75 0-.26378-.01035-.52367-.03125-.78125-.0017-.02056.0018-.04198 0-.0625 .40624-2.45627.21875-6.96641.21875-8.46875 0-12.42384-22.55902-18.09375-51.46874-18.09375z" fill="url(#b)" opacity=".98077"/>
   <path d="m-143.285-49.61563c28.90973,0 51.5625,6.79491 51.5625,19.21875 0,1.67404.74783,6.19193 0,7.90625 .003.0095-.003.02176 0,.03125 .17572.61595.27939,1.25219.28125,1.875 .003.88221-.11471,5.84638-.25,7.5625l-.0312-.03125c.007.12542.0287.2481.0312.375 .0321,1.60109.062,7.5035.0312,9.125-5.29414-9.8112-26.61398-16.90625-51.5625-16.90625s-46.01836,7.78255-51.31249,17.59375c.005-1.65639-.0312-8.72496-.0312-10.40625 0-.41364.0426-.79077.0937-1.1875-.1917-2.47852-.0937-6.37791-.0937-7.75 0-.26378.0104-.52367.0312-.78125 .002-.02056-.002-.04198 0-.0625-.40624-2.45627-.21875-6.96641-.21875-8.46875 0-12.42384 22.55902-18.09375 51.46874-18.09375z" fill="url(#a)" opacity=".98077"/>
  </g>
  <path transform="matrix(.002235 .24326 -.26843 .002536 -245.02 447.68)" d="m-64.65 1314c0 15.302-29.634 27.707-66.189 27.707s-66.189-12.405-66.189-27.707 29.634-27.707 66.189-27.707 66.189 12.405 66.189 27.707z" fill="url(#d)" opacity=".98077"/>
  <path d="m-72.674 413.99c-0.10376-11.293-3.084-20.12-7.7642-20.076-0.64678 6e-3 -2.1677-0.0945-2.7699 0.24239 3.7933 2.0296 6.6885 10.137 6.7779 19.869s-2.9243 18.073-6.6797 20.174c0.71036 5e-3 0.41305-7e-3 3.0766-0.0206 3.5034-0.0178 7.463-8.8953 7.3592-20.189z" fill="#1a1a1a" opacity=".98077"/>
 </g>
</svg>
