<?xml version="1.0" encoding="UTF-8"?>
<svg viewBox="0 0 640 480" xmlns="http://www.w3.org/2000/svg">
 <defs>
  <clipPath id="a">
   <path d="m0 2092v-2092h891.97v2092h-891.97z"/>
  </clipPath>
 </defs>
 <g clip-path="url(#a)">
  <path d="m293.77 11.513c-1.7155 0.36135-2.5536-1.3761-2.9933 0 0.55841 0 1.1271 0.75167 0 0.92782-1.5865-0.92782-4.01-0.88099-1.9962-2.788-4.7686 0.41935-4.2093 0.41935-8.9798 0 0.020569 4.8422 5.1989-0.50183 3.9913 4.6482 3.5424-1.2089 3.6218-2.101 7.9817-0.93006 0.010284-1.2267 1.7464-0.84533 1.9962-1.8579zm36.916 101.3c2.4152 4.7753 2.5742-3.1984 0 0zm3.9913-4.6482v-1.8579h-2.9933v1.8579h2.9933zm0.9981-22.304c2.4545 1.4409 2.9343-3.1605 0.99713-2.788-0.058929 0.56653-0.14966 1.0974-0.99713 0.93009v1.8579zm5.9865-25.092c0.32925-3.6333 1.7155-10.222-0.99808-12.082 0.63892 3.7359-1.2974 9.8806 0.99808 12.082zm32.926 28.81c-0.72867 2.081-3.0035-2.0542-4.9894-1.8602 2.476 3.6355 6.4056 8.1052 2.9933 12.082-1.7857-1.4297-0.79788-5.4466-3.9904-5.576-1.8455 1.6349 0.25909 2.8817 1.9952 3.7181-2.4844 0.42824-7.3728-4.8801-10.975-6.5061-0.51819 2.5739 5.3579 3.4861 3.9904 8.364-1.7651-0.8364-2.9128-2.2393-4.9885-2.788 3.5723 4.414 9.9077 6.263 12.971 11.152-3.8613 2.1568-0.45929 5.9485-1.9961 9.2941-3.3524 0.95684-1.5556-2.8906-1.9952-4.6459-3.3814 3.2898-6.515-0.99701-9.9778-2.788-2.0252 0.76948 2.3955 3.2519 2.9933 4.6459-0.55746 1.9338-1.5556 1.9694-2.9933 0.93008 1.6266 3.7538 6.1774 4.7753 8.9798 7.4339 0.020569 4.0415 0.32925 8.364-0.99713 11.152-3.3524-1.2178-6.8648-2.2772-8.9798-4.6459-1.5668 0.3234 0.87741 1.6349-0.99808 1.8579 1.5967-0.29887 3.5227 3.6891-0.99805 1.8579 0.95782 3.756 4.6405 4.9716 7.9826 6.5061 0.8587 3.0846-0.32925 5.2593 0.99713 9.2941-1.2656 2.1456-5.6872-2.7322-2.9933 0.92783-1.796 1.9048-5.4777-2.2772-7.9817-2.788-2.8333-0.15836 1.2076 6.0778-2.9933 4.6482 6.2456 3.5017 11.914 6.5038 8.9798 14.868-4.3702 0.67806 0.8082-1.849-1.9952-1.8579-1.2665 0.21411-1.3067 2.7702 0 2.788-1.4068 1.5524-5.4777-2.2772-7.9826-2.788 0.28998 2.8616 0.59863 1.5613-2.9933 4.6459 2.5658 2.5739 6.5169 3.8474 9.9778 5.576-1.9353 1.7933 1.0477 3.7359 0.99808 6.5061-0.95782 1.0594-5.8471 3.1025-3.9913 3.7181-1.8558 1.6706-5.4674-2.9196-8.9798-2.788-1.606 0.16505 1.6267 4.4139-2.9933 3.7158 3.9212 4.405 12.792 4.1909 11.973 13.012-3.692-0.65129-4.4104 1.4676-3.9913 4.6459-2.8426-1.3762-6.6048-1.907-8.9798-3.7181-4.3196 1.3204-0.38818 5.15-5.9865 2.788 3.0531 4.2846 10.317 4.637 14.966 7.4362-0.80725 3.214 1.8661 3.921 0 5.576-1.8951 1.7352-2.5041 0.10036-4.9885 0 0.43964 1.7553-1.3572 5.6028 1.9952 4.6459-4.5881 1.7553-9.0892-3.1315-13.968-2.788-5.8359 0.41708-6.4542 4.5166-11.973 5.576-3.3721-7.7239-5.9463-13.394-3.9913-22.304 3.9417 5.1188 0.67911-4.6838 1.9961-13.01 0.88766-5.5872 2.2842-12.528 2.9933-14.87 0.049561-0.16728 1.8053 0.12045 1.9952 0-0.029938-0.90332-1.216-0.72488-1.9952-0.93008 4.0708-12.564 8.6711-36.141 8.9798-52.042-0.80722 7.5098-6.1465 16.605-5.9865 27.88-3.1719-4.1441 0.66785-11.672 1.9952-18.586 0.93915-4.889-0.24976-10.13 2.9933-13.012 2.7248-0.67802 2.0055 1.849 3.9913 1.8602 1.087-3.8028-3.4329-2.3798-3.9913-4.6482 0.74832-5.5001 2.8549-9.7312 2.9933-15.798 1.4377 0.2141 0.34891 2.7702 1.9952 2.788-0.63696-3.0757-0.80725-12.695 0.99805-18.588 0.36951-1.5791-0.77823-1.7553-1.9952-1.8579 2.215-3.2809 6.0361-7.6391 3.9904-12.082 6.486 1.0884-1.3563 7.1484 0.99805 13.012 2.5256-4.7775 2.9746-11.478 3.9913-17.658-3.7519-0.70702-0.68845 4.9359-4.9894 3.7181 2.0354-3.2809-3.6415-6.0689 0-12.082-2.9624-0.95685-2.534-5.0831-5.9865-5.576 0.15994-1.0862 1.8175-0.78064 2.9933-0.93009-4.0493-2.5092-8.4101-6.1782-11.973-6.5038 4.3702-2.3062-3.0522-1.6639 0-5.576-1.0074-1.5434-4.2401-1.0126-5.9865-1.8601 0.55939-4.6281-7.0136-5.324-3.9904-9.2918-1.7866-0.12045-2.1056 1.1331-3.9913 0.92786-3.6518-6.5039-15.046-5.8169-21.951-9.2918-2.983 1.2535-4.4094 3.95-4.9885 7.4339-4.0811 4.5545-14.926 8.4576-19.955 1.8579 0.079498-3.6422 1.7557-5.799 2.9933-8.364 2.7238 0.85647-1.3975 2.9106 0 5.576 3.7013-6.1514 9.5279-10.333 13.968-15.798-3.2327 1.5524-2.1252 1.356-6.9846 0.93006 15.934-5.7522 32.048 3.3077 44.899 6.5038-7.992 1.8601-17.999-2.4334-28.934-0.92786-1.4657 3.5307 4.46 0.18514 2.9933 3.7159 7.9125-1.4944 15.585 0.7717 24.944 2.788 6.2353 1.3382 9.4484 6.2273 14.966 8.364 4.5395 1.7576 9.6579 3.1136 13.968 6.5061 6.8855 5.4087 12.442 17.685 17.96 26.95 2.3244 3.9032 3.5227 11.906 5.9865 17.658-2.6444 2.101-5.6769-3.3456-8.9798-3.7181 5.0193 4.6192 11.903 7.5008 15.964 13.012"/>
  <path d="m340.67 48.684c2.7136 1.8602 1.3273 8.4488 0.99805 12.082-2.2954-2.2014-0.35916-8.3462-0.99805-12.082"/>
  <path d="m336.68 83.07c1.9372-0.37248 1.4574 4.2288-0.99713 2.788v-1.8579c0.84747 0.16727 0.9382-0.36356 0.99713-0.93009"/>
  <path d="m334.68 106.3v1.8579h-2.9933v-1.8579h2.9933"/>
  <path d="m330.69 112.81c2.5742-3.1984 2.4152 4.7753 0 0"/>
  <path d="m169.05 219.68c0.26939-1.2646-0.61829-3.6244-0.99712-1.8579-0.26939 1.2646 0.61829 3.6244 0.99712 1.8579zm27.937-56.688c0.22917-1.443 3.8314-4.3404 0.99808-5.576 0.43869 2.0609-3.083 5.0363-0.99808 5.576zm2.9933 42.748c0.26939-1.2646-0.61829-3.6244-0.99806-1.8579-0.26939 1.2646 0.61925 3.6244 0.99806 1.8579zm0.9981-57.618c0.97748-2.5382 3.4516-8.5045 1.9952-10.222-1.2964 1.9605-5.2475 10.072-1.9952 10.222zm8.9798-51.114c-0.05986 2.9553 3.532 11.003 2.9933 8.364-1.7258-2.11 0.38913-7.7974-2.9933-8.364zm5.9865-65.054c-1.3769 0.037931-2.1954-0.43491-2.9933-0.92782 0.38913 1.597-1.477 2.3776 0 2.788 0.28903-1.9338 2.7033 1.3739 2.9933-1.8602zm-2.9933 58.548c3.6415-0.36132 3.7509-8.8547 2.9933-10.222-3.1027 1.4498-1.6968 7.0904-2.9933 10.222zm5.9865-17.656c-1.3676-3.9121 4.0409-9.8338 0-10.224 1.347 4.4898-4.1204 8.877 0 10.224zm1.9952-19.516c2.7734 1.4854 2.7641-4.0147 0.99808-3.7181 0.079498 1.617-0.21982 2.8906-0.99808 3.7181zm2.9933-33.456c-0.52849-1.3382 3.8912-2.2683 0.99808-2.788 0.11972 0.94793-4.301 1.8758-0.99808 2.788zm-8.9798 228.62c3.6724 2.3794 7.8227 5.9106 11.973 4.6455-1.2964-3.1582-5.747-3.4004-8.9798-5.5755-6.5655-4.414-15.016-12.452-17.96-20.444-0.95784-2.594-0.45831-9.5818-1.9952-8.364-0.32925 5.2303 2.4937 8.9394-0.99808 12.08 4.2112 7.7506 10.925 13.095 17.96 17.658zm10.975-222.11c0.14032-1.0951 1.7763-2.1077 0-2.788-0.13936 1.0974-1.7754 2.11 0 2.788zm1.9961 285.31c0.26938-1.2624-0.61923-3.6235-0.99808-1.8584-0.26938 1.2651 0.61925 3.6253 0.99808 1.8584zm-6.9846-180.29c1.5565 3.1962 8.152 5.6028 11.973 3.7181-0.64822-4.3604-7.2932-3.1137-11.973-3.7181zm7.9817-105.02c0.79883-3.3166 5.2681-8.0651 3.9913-10.222-0.30963 3.7738-6.8948 6.5529-3.9913 10.222zm-2.9933 139.4c1.477 5.77 6.8452 0.026779 11.973 3.7159-1.7258-3.3456-7.5626-2.8728-11.973-3.7159zm8.9798-50.184c0.77824-0.20521 1.158-0.78288 0.99806-1.8602-3.6714-1.0215-6.5945-1.1888-11.973-1.8579 0.1693 1.394-0.35918 3.4281 0.99808 3.7181 2.5143-0.53976 8.7702 2.5917 11.973 0.92785-0.77826-0.20521-1.9662-0.028999-1.9961-0.92785zm2.9933 144.97v-1.8592h-1.9952v1.8592h1.9952zm1.9961-163.56c-1.7763-0.455 0.42935-0.99474 0.99712-1.8579-1.5658-0.093689-3.4619 0.12042-2.9933-1.8602-5.1381 1.617-3.8613-2.5828-10.975 0 1.2076 0.19627 0.60896 1.0327 0 1.8602 3.851 0.46391 8.7506 4.8132 12.971 1.8579zm0.9971 275.08c0.15997-0.64993-0.34889-5.4078-0.99712-2.788-0.87834 3.5416 0.5388 4.6568 0.99712 2.788zm0.9981-345.71c-0.24976-3.2698 6.0164-6.3098 0.99808-8.364 0.1693 2.7055-3.5021 6.5618-0.99808 8.364zm-10.975 50.184c4.2205-0.51077 16.363 5.0184 13.968-0.92786-0.54813 4.7485-4.1008-0.19627-3.9913-1.8602-2.0644 0.54868-6.5543-1.1509-6.9836 0.93009 3.8014 1.6081-3.8819-0.073624-2.9933 1.8579zm-0.9981 177.5c5.8967 1.6458 13.08 6.9979 18.958 5.576-7.2044-0.4278-13.66-6.4682-18.958-5.576zm17.96-195.16v-3.7181c-3.2028-0.32566-6.1558 2.3888-8.9798 0.93006 0.55939 0 1.1374-0.75388 0-0.93006-0.30963 1.2557-1.4162 1.7754-0.99806 3.7181h9.9778zm2.9933-22.304c-0.14966 1.2446 1.5668 5.121 1.9952 2.788-1.7454-1.8958 0.74832-1.8222-0.99712-3.7181h-3.9913c1.1477 2.9285-1.5658 2.2594-1.9952 3.7181 1.8858-0.20518 2.2047 1.0505 3.9904 0.92785 0.17024-1.394-0.35825-3.4281 0.99806-3.7158zm1.9952 287.16c-0.21887 1.1718-1.5565 1.8958 0.99806 1.8583-2.374-3.3639-1.8156-9.46-7.9817-9.2927 1.2768 4.2387 1.2066 9.8147 6.9836 7.4344zm3.9913-64.124c-3.1532 0.45566-3.5217-1.6728-6.9846-0.92966-1.2263 3.086 6.7451 2.2775 6.9846 0.92966zm69.843-193.3c-1.0476 5.3909 4.3196 0.39032 0 0zm-154.65 162.62c0.64918-3.7248 4.72 10.13 11.973 11.163-8.1912 0.16728-13.768-13.978-20.953-14.87-0.15903-1.0773 0.2198-1.655 0.99805-1.8579-0.99805-1.2825-1.6463 0.39923-2.9933-1.8579 1.2469-12.64-2.4142-16.646 2.9933-25.092 5.4281 0.21191 3.692 7.0904 3.9913 12.08 2.2047-0.11151 0.41905-3.9411 0.99712-5.576 2.6949 3.7448 1.9662-5.5381 1.9961-5.576 0-0.008942 1.955 1.1242 1.9952 0.93008 0.22917-1.3204-2.1851-5.0652-0.99806-7.4339 0.93822-1.878 3.1429-1.8892 4.9894-4.6482-0.73897-2.101-5.5974-0.36131-7.9826-0.92786-0.2488-3.6355 3.562-9.0242-2.9933-8.364 2.8735-2.594 6.2166-4.7507 12.971-3.718 1.8259 0.20294-1.3273-6.6265 3.9913-5.576-1.3872-2.1189-6.9443-0.34348-9.9778-0.93008 0.82875-5.5492 0.36949-5.7433-0.99806-10.222 4.3412-1.7486 14.478-2.3241 11.973-7.4339-0.73801-2.101-5.5964-0.36356-7.9817-0.93007 2.8539-4.211-1.8156-6.0511 0-9.2941-8.7104 2.1836 6.5749-3.7158 10.975-3.7158 1.1477-1.9516-0.60799-3.6244 1.9961-5.576-0.34985-1.1531-5.7471 0.76057-8.9798 0 0.99712-5.4756-1.926-8.6249 3.9904-12.082 4.0616 0.55759 7.3439 1.8289 6.9846 6.506 1.2469-3.3746-1.766-13.262 2.9933-15.8-1.9456-1.4408-4.9585 4.0147-9.9779 2.788 3.4629-3.011-3.4619-5.3619 0-8.364-2.0046-0.31673-3.1223 0.18512-2.9933 1.8602-5.6563-6.9053 16.413-3.0133 15.964-11.154-0.13936-1.5323-6.8442-1.5323-6.9846 0-0.54814-4.1351-6.1755-3.5396-5.9866-8.364 1.8868 0.10262 0.68845 3.078 2.9933 2.788 0.40971-1.1509 1.1384-2.7032 2.9933-4.6459-1.7857-0.12044-2.1046 1.133-3.9904 0.93009 5.0979-3.9969 14.776-4.1352 14.966-10.224-4.9688 0.23421-4.2411 0.38142-7.9826 0.93009-1.0074-3.0846-5.5169-2.9084-4.9884-7.4339 3.432-2.6966-0.61829 3.5218 2.9933 4.6459-1.6762-1.2735 4.3299-7.0994 0.99808-6.5061 2.6537-4.6548 13.01-2.1278 12.97-9.2918-0.54813-1.3382-5.7863 0.73378-7.9817 0.92783-0.10008-2.6207-3.7612-3.9478-0.99806-6.5038-2.5639 0.073593-1.4265 4.3292-3.9904 1.8579-0.040222-6.4682 7.7422-5.8927 11.973-8.364 2.664-1.5613 3.0026-3.93 5.9865-4.6459 0.30963-7.8532-0.55937-8.0205 0.99712-13.94 2.1654-0.15837 0.44995 3.2988 0.99806 4.6459 4.2804-1.9338 0.99808-6.8964 0-7.4339 2.2655-2.1947 2.9839 1.162 3.9913 2.788 2.824-4.1173 5.747-7.9268 5.9865-12.082-2.3151 2.4825-4.5198 5.0831-5.9865 8.364-1.5069-6.9878 7.9125-11.83 15.963-13.01-1.6453 2.4891-4.2298 4.1173-5.9865 6.5038 6.037-1.1977 11.265-11.179 23.946-9.2918-2.823 2.333-5.9257 4.3961-7.9817 7.4339 7.3634-4.9158 16.014-8.6339 28.934-8.364-2.0354 1.0126-5.2176 3.3925-6.9836 1.8579-0.99808 0.73605 0.36853 3.2542-1.9961 4.6482 0.23944 2.3977 1.7164-1.2736 3.9913 0 2.664-1.6461-2.5546 2.3888-4.9884 1.8579 2.0055 2.1367-1.347 4.9247-2.9933 6.5061 1.0373 6.1894-1.0879 11.783 0 19.516 0.18893 0.75165 0.99713 0.92783 0.99713 1.8579 28.975 1.8222 49.269 11.727 69.843 21.374 1.796 3.3278 0.67816 7.5477-0.99805 10.224-22.409-4.3136-42.304-18.764-71.838-19.516-2.6939 0.2788-1.7856 3.9121-3.9904 4.6459 2.9933 2.1836 11.943 3.7181 15.963 1.8579 18.768 6.9901 39.392 12.249 56.872 20.446-0.12909 1.6639 1.2179 1.9605 0.99805 3.7181 0.040253 2.3776-0.73801 1.133-1.9952 0.92782-1.9363 1.2936-1.4873 4.8154-2.9933 6.5061-23.368-6.747-42.005-18.512-69.843-18.586-1.4863 0.78954-1.447 2.9909-1.9952 4.6459 2.7136 2.101 11.514 4.2199 13.968 0.93009-0.49857 1.9427 3.1728 1.6349 4.9885 3.7158 20.565 3.4571 37.406 10.391 53.879 17.658 0.70904 4.9894-0.7876 7.938-1.9952 11.152-4.7789-0.92785-14.187-4.2288-23.946-7.4339-7.7329-2.5382-17.421-4.4987-20.953-6.5061-0.21887-0.12935 1.3273-1.4319 0.99808-1.8579-3.4824 2.7768-5.3084-1.9338-9.9778-0.93009 0.5285-0.74271 1.0374-1.5055 0.99808-2.788-7.7731 5.7723-20.215-5.9016-22.949 5.576 3.9015 1.2914 8.571 4.434 12.971 2.788 1.8259-0.68695 1.2675-6.9142 1.9952-0.92785 16.543 5.7232 41.956 11.058 58.868 19.516 0.7876 4.5902 0.27969 5.9663-0.99808 10.222-23.118-2.4267-52.91-19.137-74.831-16.728-2.0756 0.24086-0.26938 4.0794-1.9952 4.6459 3.8706 2.2505 11.693 3.7627 16.962 1.8602-0.54813 2.0609 1.9063 1.3182 1.9952 2.788 10.228 1.4676 20.334 4.4318 29.933 7.4339 9.2492 2.8906 19.796 4.6838 25.942 11.152-0.91855 3.1783-1.4966 6.6533-2.9933 9.294-1.7062-2.5003-4.8098-0.43938-6.9846-0.93007-3.0335-0.68919-6.3653-2.594-9.9778-3.7181-17.48-5.4645-33.974-12.118-57.869-13.01-1.4873 0.78954-1.4471 2.9909-1.9961 4.6459 1.8063 4.2088 11.136 1.394 14.966 3.7181 1.9157-0.10262-1.1664-3.1137 0-5.576 2.2057 2.5738 2.3058 4.3493 2.9933 6.5061 20.855 3.8095 40.199 9.022 56.872 16.728 1.1973 2.8973-0.19925 7.4607-1.9952 10.222-24.485-2.304-51.284-19.396-79.82-14.87-3.7911-1.9605-4.6695-1.626-10.976-1.8579 4.5301 1.4498 1.288 6.5685 10.976 5.576 2.4339-0.93901-1.9559-4.1084 2.9933-3.7181 0.31895 2.1568-0.15996 3.5686-0.99808 4.6482 28.247 4.3582 55.245 9.8784 76.827 20.444-0.82782 4.182-1.666 8.364-4.9885 10.224-1.447-0.41038 0.10013-0.81853 0-1.8601-15.695-0.26097-36.697-10.817-56.872-13.01-1.3367 0.61336-1.8558 1.9873-1.9952 3.718-1.2572-0.23416-1.0074-1.8512 0-1.8601-4.5105-5.8726-19.945-5.1857-23.946-1.8579-0.27969 1.4966 0.94754 1.5969 0.99712 2.788 2.2749 0.25871 3.7519-0.22304 3.9913-1.8579-0.92792 4.1999 14.128 6.7559 17.96 3.7158 1.1777 1.3851 2.504 2.6207 3.9913 3.7181 20.254 3.1226 38.164 8.4376 55.874 13.94 1.6566 3.8742-0.70807 9.1067-3.9913 11.152-1.216-0.69812 4.8294-6.0132 0.99805-9.2941 0.91763 1.5903-2.7734 8.2146-2.9933 8.364-17.38-0.24089-37.186-11.199-54.877-11.152-6.2755-2.7612-20.613-6.0511-27.936-1.8579 1.1468 1.1799 5.4178 3.1404 0 2.788 4.7387 5.1745 6.196 8.6896 3.9904 16.728-2.245-0.3903-0.028976-4.9359-1.9952-5.576-0.42935 1.0951-0.8381 4.6102-1.9952 7.4339 3.0335 4.1173 7.0342 10.808 4.9884 16.728 1.9559-3.1493 1.6968 3.5129 3.8417 7.2398-1.1477-1.3293-2.5546-2.6675-3.8417-2.5939 1.6267-1.9048-1.8558-3.1404-2.7931-5.6853 1.636 9.8137 12.452 17.609 22.748 21.484-2.3937-3.3447-6.834-4.7855-9.9769-7.4352 11.265 3.7917 30.781 21.246 47.892 11.153-2.375-1.7007-3.6817 2.2391-6.9846-1.8593-0.62857 2.0074-4.0006 1.4594-4.8491 3.2629 0.38913-2.8812-10.935-2.8159-9.1191-6.0509-1.4171-0.083633-2.824-0.15768-2.9933 0.92963-2.8436-3.7819-18.898-9.0612-22.949-14.869-1.1571-0.14723-1.7754 0.2052-1.9952 0.93008-3.272-1.646 1.1674-3.7649 1.9952-4.6482-2.8127-2.7033-1.2469 2.7791-4.9884 1.8602-4.8594-10.465-4.6096-19.703 1.9952-28.81-3.142 0.78957-4.14 3.5776-4.9884 6.5061-3.5021-0.25203 2.504-3.466-0.99806-3.7181 8.5514-11.058 22.33 1.6349 18.958 15.8 2.1448-3.9701 2.1851-1.6929 0.99808 1.8579 2.8333 1.2713 0.11972-0.72488 0.99712 2.788 2.2852 9.1156 16.853 16.784 27.937 20.445 2.6042 0.86519 5.3682 0.10283 7.9817 0.92874 2.4049 0.76238 4.2906 3.0773 5.9865 3.7176 1.1374 0.43739 3.7416-2.0805 1.9962 0.92963 2.7435-0.53929 4.17-2.3132 6.9836-2.788-1.6463 2.4909-4.2298 4.1175-5.9865 6.5048 4.9987 2.7793 10.298 5.2798 17.96 5.576-8.9891 1.543-25.302 1.8872-32.926-0.92874-2.1851 0.14032-2.1449 2.3428-1.9952 4.6464-0.21982 4.182-1.796-10.835-5.907-2.0256 0.78851-1.3853 0.32922 4.5723-0.079529 5.7433-2.6537 7.6574-7.2736 28.438-8.9798 41.82-0.29932 2.3506-1.2375 3.8658-0.99806 5.576 1.3769 9.7676 7.6833 8.1418 10.976 13.94h7.9817c-19.336-0.37112-20.753-27.527-9.9778-38.103-2.8034-12.693 20.225-13.084 27.937-6.5048-4.299 2.0536 2.5256 4.2465 3.9914 6.5048-5.7068-3.485-13.929-2.5929-18.958-5.576 1.5967-1.6066 4.4899-2.016 7.9817-1.8584-8.4999-4.182-23.896 7.6949-23.946 18.586 1.926-0.37982 0.78851-3.6052 3.9913-2.788-3.7509 6.8498 5.3177 9.1176 4.9885 15.799-4.749 0.093231-4.7294-4.2656-8.9798-4.6472-1.3563 11.849 10.198 14.173 21.951 17.658-2.6144 4.4425-8.3811 4.8895-12.971 4.6464-7.2633-0.37985-11.364-6.225-16.962-6.5048 3.1729 1.3757 3.8912 5.0472 6.9846 6.5048 2.1448 21.739-1.158 46.69-0.99808 67.842 0.24976 1.0142 1.9859 0.63257 1.9952 1.8584-1.9353 2.8255 1.158 7.5659-1.9952 7.4352-4.7789-0.21344 0.76889-3.2994 0-5.576-1.7856-19.274-5.0586-39.432-4.9884-61.336 0.009323-2.3044 1.3965-4.1176 0.99712-6.5056-1.0972-6.6258-6.0856-11.56-8.9798-17.658-3.8903-8.1862-0.46863-22.304 1.9961-29.738-0.7081-1.0307-5.5282-0.88168-6.9846 1.8584-2.9933-0.61246 0.95786-1.9873 0-3.7168-3.2524-1.2633-7.4429 2.2313-7.9817-1.8592-2.3151 2.4918-3.9315 5.6327-3.9913 10.223 1.6865 0.084534 6.7844 0.60464 10.975 0.92874-0.55844 1.9333-1.5565 1.9708-2.9933 0.92963-0.47797 5.0933 4.3505 9.1551 1.9961 13.01 4.1008-1.7556 1.0074-10.212 2.9933-13.94-0.23946-0.65952-1.3676-3.2698-2.3254-2.8429 3.3132-4.0705 4.4899 8.066 3.3225 15.854-0.35825 2.3707-2.5041 4.0801-2.9933 6.5048-1.0776 5.3442 3.4928 13.096-0.99712 10.223 0.51916 2.3054 2.4339 3.309 3.9904 4.6464-0.42841 10.744 2.4255 15.715-0.99712 25.092-0.71838 2.5284 4.7097-0.66913 3.9904 1.8584 0.97844 2.5928-1.9746 0.84598-1.9952 0.92963-0.85773 3.1609 1.1075 7.3507 0.99808 11.152-0.049576 1.8314-1.926 1.3766-1.9961 1.8584-0.25911 1.8689 1.0982 3.5791 0.99806 5.576-0.21982 4.3406-2.2852 8.6907-4.9884 11.152-2.5349-24.691-2.3254-49.978-7.9826-78.993-1.3563 0.28842-0.82782 2.3228-0.99712 3.7168-2.0457-2.565-3.7116-5.1944-3.9913-5.576-0.42935-0.57587 0.28999-1.5787 0-1.8584-1.8352-1.7469-10.227 0.2518-6.9846-12.082-1.506 2.6207-1.7557 6.4133-1.9952 10.223-4.6592-4.5357-0.1693-13.614 0.99808-18.587 2.2543 0.68829 0.38913 5.2145 0.99712 7.4353 3.3431-11.04 3.6817-24.86 5.9865-36.244 0.30963-1.5238 0.47893-2.4525 1.9962-2.788-17.082-8.5687-35.22-16.133-40.909-35.315-1.4068 3.9322-0.72772 4.8333-0.99712 6.5061 0.3096 1.5992 3.462-1.2089 2.9933 2.788 1.9755 0.89217 0.25909 0.91-0.68845 0.03566-0.15997-0.61336-0.26939-1.2535-0.30963-1.8936-0.42941 0.84309-0.16002 1.4765 0.30963 1.8936 2.8632 10.931 23.567 18.346 31.618 24.126-17.68-8-37.295-14.209-43.901-32.526-1.4863-0.037933-1.447 5.5202-1.9952 0.93007-2.7042 0.84309 0.99712 3.2408 0.99712 4.6348zm197.75-161.81c-0.1001-0.5665-0.15997-1.142-0.18991-1.7286-0.089813 0.64236 0 1.2089 0.18991 1.7286"/>
  <path d="m326.7 66.342c4.3196 0.39032-1.0476 5.3909 0 0"/>
  <path d="m324.7 86.789c1.1281 0.21411-0.098206 6.031-2.9933 5.576 0.28998-2.5181 1.2871-4.3783 2.9933-5.576"/>
  <path d="m320.71 150.91c1.8352 1.7665 0.8587 8.8101-1.9961 9.2941-0.61832-4.2935 2.2449-5.3552 1.9961-9.2941"/>
  <path d="m318.72 442.72c3.6218-0.22217 2.2449 8.9974 0.99805 10.223-6.2952 8.0939-24.186 9.8695-36.917 6.5047 1.9962-3.4475 6.8246-4.5897 10.976-6.5047 3.5414-1.6362 7.3933-4.3955 10.975-5.576 4.72-1.5526 11.404 0.38071 13.968-4.6473"/>
  <path d="m319.72 162.06c-0.42841 7.7038-1.8661 15.798-3.9913 24.162-1.4461-6.747 3.2243-18.234 1.9961-25.092 1.1571-0.14941 1.7764 0.2052 1.9952 0.93008"/>
  <path d="m313.73 188.09c0.64917-2.623 1.1571 2.1367 0.99805 2.788-0.45926 1.8668-1.8764 0.75162-0.99805-2.788"/>
  <path d="m314.73 157.42c-0.18988 1.0483-0.99808 0.50853-0.99808 0-0.96716 0.026764-0.77823 1.133-0.99805 1.8579-1.0869-0.23193-0.67722-1.8512-1.9952-1.8579 0.34891-1.2178 1.7557-1.4609 1.9952-2.788 0.23947 0.91892 0.8381 2.527 1.9961 2.788"/>
  <path d="m312.73 161.13c2.9933 0.61336-0.95782 1.9895 0 3.7181-2.4844-0.14052-0.28903-3.1516 0-3.7181"/>
  <path d="m312.6 153.99c0.019623 0.046829 0.07016 0.24086 0.12909 0.64236-0.089813-0.33681-0.12909-0.58661-0.12909-0.64236"/>
  <path d="m302.75 396.26c0.40875-2.3132 3.8706-0.054901 2.9932 1.8583-2.214 0.51233-1.4172-1.7738-2.9932-1.8583"/>
  <path d="m286.79 323.77c-1.7361-8.912-7.8825-13.717-11.973-20.446-0.20953-1.1239-1.1075-0.5759-1.9952 0-3.5723 10.809 0.009338 26.032 13.968 20.446zm0.998-30.668c5.617 3.3926 9.0191 11.86 5.9865 20.446 1.666-10.167-6.1567-22.721-16.962-15.799 4.561 6.9064 9.0003 13.923 13.969 20.446-2.5938 2.9187-1.0476 3.9224 0 7.4344-4.3908 0.69699-6.0061 1.2267-10.976 2.788-12.771-2.3698-12.053-23.845-3.9904-30.668 0.28903-3.9868-4.6994-3.0572-4.9894-6.5048 0.88864-0.4086 1.7866-0.81808 1.9961-1.8592 3.6714 0.61337 4.9698 3.4301 6.9836 5.576 2.186-1.0586 4.0811-2.3977 7.9826-1.8584"/>
  <path d="m290.78 11.513c0.43964-1.3761 1.2777 0.36135 2.9933 0-0.24979 1.0126-1.9859 0.63122-1.9962 1.8579-4.3599-1.171-4.4394-0.2788-7.9817 0.93006 1.2076-5.15-3.9707 0.19407-3.9913-4.6482 4.7705 0.41935 4.2111 0.41935 8.9798 0-2.0139 1.907 0.4097 1.8602 1.9962 2.788 1.1271-0.17616 0.55841-0.92782 0-0.92782"/>
  <path d="m244.88 440.86c0.47893-4.8224-6.2363-6.7278-3.9913-10.222h-1.9952c-0.608 0.056671-1.1777 0.14029-0.99806 0.92874 1.5266 0.36334 0.14966 1.1152-0.99712 0v3.7176c4.3702 0.67956-0.80817-1.8488 1.9952-1.8584 1.1674 0.15768 1.0879 1.468 0.99808 2.788-1.1777 0.1481-2.8333-0.1586-2.9933 0.92874 2.1645 1.394 2.3244 4.6472 5.9865 4.6472 0.21983-0.724 0.83812-1.0777 1.9952-0.9296zm-3.9913 1.8583c0 2.5467 4.6798 5.4749 5.9865 3.7176-1.1168-0.19516-1.5565-1.0307-1.9952-1.8584 0.55939 0 1.1374-0.75186 0-0.9296-0.27872 2.1938-2.664-1.0682-3.9913-0.92966zm3.9913-12.081c-0.94754 1.6257 3.6817-0.28751 2.9933-0.92963-0.8484-0.78934-2.8436 0.6796-2.9933 0.92963zm1.9952-3.7176c0.30963-1.2537 1.4171-1.7738 0.99806-3.7176-3.1822-0.78842-3.7911 0.80856-4.9884 1.8593 0.009323-4.6473-0.67911-1.3661-1.9961-0.92963 0.20018-0.064484 0.0103-3.1879-0.99712-2.788-0.69875 0.27966 0.61829 3.1321-0.99808 2.788-1.9353-0.40772-1.2964-1.7382-2.9933-2.788-3.8108 4.4512 5.8967 2.7505 6.9846 5.576-0.60896 0.056641-1.1777 0.14026-0.99808 0.92963 3.8117 0.76148 1.1777-4.4791 4.9884-3.7176-0.13936 1.0978-1.7754 2.1102 0 2.788zm3.9913 14.87c-4.0306-3.2706-2.3544 2.9927 0 0zm0-15.799c0.60896 0.27008 3.8417 2.314 3.9913 0-3.5423 1.442-0.59865-3.1582-2.9933-2.788-0.049576 1.1902-1.2768 1.2825-0.99808 2.788-0.059875 0.34412-1.8455-2.9265-1.9952-2.788-1.5172 1.4141 1.5368 5.3539 1.9952 2.788zm1.9952 21.375c1.4368 1.0402 2.4348 1.0037 2.9933-0.92963-1.2768-0.054901-1.376-1.1884-2.9933-0.92966v1.8593zm2.9933-14.87c1.2272-3.0842-6.7442-2.2757-6.9836-0.92966 3.8613 1.2651 3.9305-0.39902 6.9836 0.92966zm-2.9933 1.8583c1.2974 6.2556 8.1323-2.0805 2.9933 1.8592-0.25911-1.3094-2.1841-1.0585-2.9933-1.8592zm4.9894 9.2936v-1.8584h-2.9933v1.8584h2.9933zm0.9971-5.576c-3.0325 3.1321 3.692 2.8159 0 0zm1.9961 7.4343c-2.7239-0.083618-2.0055 1.5526-3.9913 0 0.040253 1.2825-0.46863 2.0449-0.99806 2.788 2.5443-0.10107 3.4928-1.7007 4.9894-2.788zm1.9952-8.364c-0.15997-1.096 0.16931-2.639-0.99805-2.788-2.983 2.4813-1.6762 2.064 0.99805 2.788zm2.9933 4.6472c-2.0654 0.54889-6.5552-1.1518-6.9846 0.92874 2.8941 0.9863 4.7892 1.1902 6.9846-0.92874zm0-1.8593v-1.8583h-1.9952v1.8583h1.9952zm-0.998-3.7167c1.766-0.21344 4.9987 0.93924 3.9913-1.8592-1.8558 0.13159-3.3328 0.61337-3.9913 1.8592zm4.9894 4.6464c-5.1288 2.2487 3.4329 2.3977 0 0zm2.9933 5.576c-1.4368-2.0536-2.4348 1.1718-2.9933-0.92966 1.8558-2.4987-3.0335 1.1815-3.9913 1.8593 1.2572-3.9302-1.5369 1.4506-3.9913-1.8593 1.5472 3.3003-3.3917 0.55853-2.9933 2.788 5.4477 0.12109 10.636 0 13.969-1.8584zm-2.9933-11.152c1.636 0.52969 7.8723-0.18469 5.9865-2.788-0.83814 2.0073-5.1484 0.78149-5.9865 2.788zm7.9817 6.5056c0.15994-4.1175-2.8239 0.43741-3.9913-1.8592-0.159 4.1184 2.8239-0.43649 3.9913 1.8592zm-7.9817-2.788c6.0763-0.84509 12.392-1.4689 14.966-5.576-3.6125 2.2592-12.013 2.9361-14.966 5.576zm9.9769 6.5047v-1.8583c-0.99713 0-1.187-0.75189-1.9952-0.92966 0.1001 1.4594-0.13004 3.2263 1.9952 2.788zm-1.9952-12.081c2.5443-0.11148 5.1391-0.17596 4.9885-2.788-1.7361 0.85468-5.3579-0.027008-4.9885 2.788zm0.9981 6.5047c3.3618 0.59595 8.7403-1.6806 5.9865-3.7167-1.0879 2.0814-4.8996 1.6362-5.9865 3.7167zm5.9865-13.01c-1.217 3.3735 1.607 7.6949 3.9904 4.6464-6.6843-0.73358 1.1487-10.148-2.9933-13.94-2.1552 2.0169-4.9089 3.5051-6.9836 0.92966 0.23013 4.2386-5.488 2.9457-7.9826 4.6463-0.099152-1.4576 0.13-3.2245-1.9952-2.788 3.0531 4.7876-5.1783 3.5504-9.9778 3.7176v8.364c10.536-0.10107 19.029-2.1084 25.942-5.576zm1.9951-10.222c8.152 7.342 3.9324 18.569-0.99805 26.021-3.1822 0.5498-3.0831-1.7469-4.9885 0 4.111 3.7917-2.4236 3.1148-5.9865 4.6473 0.24976-1.0133 1.9859-0.63254 1.9952-1.8593-0.34796-1.4576-1.7557 0.80856-1.9952-0.92874-1.8446 0.14032-0.60895 3.1513-1.9952 3.7168-6.2466 0.68826-12.612 1.2651-19.956 0.92963 0.18056-2.6303-3.7509-2.165-0.99712-4.6464-3.1233 0.64215-1.2974 2.4814-0.99808 4.6464-6.0164-2.1372-14.148-2.3131-15.964-8.364 1.3376 0.9296 1.9559 2.5092 3.9913 2.788-0.20953-4.4512-6.196-3.5225-4.9884-9.2936 0.80818 0.17773 0.99712 0.92966 1.9952 0.92966-1.7062-3.735-1.3067-3.6802-1.9952-8.364 1.6164-0.25964 1.7165 0.87476 2.9933 0.92963 0.68846-3.735-4.2008-2.2862-3.9913-5.576 4.9988-0.38071-0.33859-2.8899 0-4.6472 3.0335-0.03656 3.8819 1.9621 5.9865 2.788-0.33859-2.4709-2.6144-3.1408-4.9884-3.7167 1.447-2.6477 5.9762 1.7843 9.9769 2.788 5.299 1.3296 14.677 0.79025 22.949 0.92874-1.1973 1.2189-0.38913 1.4594 0 2.788 1.3563-0.28659 0.82779-2.3227 0.99713-3.7167 7.7525 0.40948 10.716-3.6522 18.958-2.788zm-32.227 22.229c-0.1104-0.008698-0.20018-0.008698-0.27969-0.017426 0.079514 0.008728 0.17961 0.008728 0.27969 0.017426zm32.826-22.192c0.059875 0 0.13937 0 0.20953 0.010498-0.07016-0.010498-0.13937-0.010498-0.20953-0.010498zm18.538-18.697l0.5089 0.0635 0.6089 0.0837 0.2694 0.0374c-0.07016-0.009552-0.16928-0.026947-0.26938-0.037415-0.21887-0.027008-0.42841-0.054901-0.60895-0.083679-0.18893-0.027863-0.35825-0.045258-0.50888-0.063538zm-0.9765-0.1316l0.5575 0.0749c-0.23947-0.037476-0.42743-0.054871-0.55746-0.074921"/>
  <path d="m288.78 431.57c-2.3834 3.0485-5.2073-1.2729-3.9904-4.6464-6.9135 3.4676-15.406 5.4749-25.942 5.576v-8.364c4.7995-0.1673 13.031 1.0699 9.9778-3.7176 2.1252-0.43646 1.8961 1.3304 1.9952 2.788 2.4947-1.7006 8.2128-0.40772 7.9827-4.6463 2.0747 2.5754 4.8285 1.0873 6.9836-0.92966 4.1419 3.7917-3.691 13.206 2.9933 13.94"/>
  <path d="m284.79 436.22c2.7538 2.0361-2.6248 4.3127-5.9865 3.7167 1.0869-2.0805 4.8986-1.6353 5.9865-3.7167"/>
  <path d="m282.8 430.64c0.1506 2.612-2.4442 2.6765-4.9885 2.788-0.36948-2.815 3.2524-1.9333 4.9885-2.788"/>
  <path d="m274.82 303.32c4.0905 6.7287 10.237 11.534 11.973 20.446-13.959 5.5865-17.54-9.6369-13.968-20.446 0.88766-0.5759 1.7856-1.1239 1.9952 0"/>
  <path d="m280.8 458.52c5.1082 4.7866-4.6592 4.3675-5.0474 8.3544-4.4908-0.62296-3.5835-0.54712 1.0561-2.7784-1.1674-1.022-7.3934 1.1239-8.9798 2.788-1.476-0.40866 0.3891-1.1893 0-2.788h-1.9952c-1.1374 0.17682-0.55841 0.92868 0 0.92868-0.15997 1.0873-1.8156 0.78156-2.9933 0.92966v5.576c-2.4648 0.12112-4.8088 0.14026-5.9865-0.9296 4.1803-1.942-1.0579-2.5449 0.99808-4.6464h-1.9961c-0.58835 4.7405-11.523 1.1718-12.97-3.7176 10.346-0.22217 29.384 2.8534 37.914-3.7167"/>
  <path d="m274.82 415.77c-2.0943-0.82593 3.5723-2.1651 5.9865-1.8584-1.0074 1.5421-4.2401 1.0133-5.9865 1.8584"/>
  <path d="m279.81 443.65v1.8583c-2.1252 0.43826-1.8951-1.3286-1.9952-2.788 0.8082 0.17776 0.99808 0.92966 1.9952 0.92966"/>
  <path d="m276.81 361.87c-2.5041-0.39902 1.6566-1.9969 2.9933-1.8584-0.72775 0.86514-1.8156 1.4045-2.9933 1.8584"/>
  <path d="m284.79 433.43c-2.5742 4.1071-8.89 4.7309-14.966 5.576 2.953-2.6399 11.354-3.3168 14.966-5.576"/>
  <path d="m273.82 439.93c1.1674 2.2967 4.1512-2.2582 3.9913 1.8592-1.1674-2.2958-4.1503 2.2592-3.9913-1.8592"/>
  <path d="m275.81 432.5c1.8858 2.6033-4.3505 3.3177-5.9865 2.788 0.83814-2.0065 5.1484-0.78067 5.9865-2.788"/>
  <path d="m275.81 466.89c-0.019623 0-0.040222 0-0.058929 0.009521-0.011261-0.009521 0-0.019135 0-0.019135 0.018707 0 0.039307 0.009613 0.058929 0.009613"/>
  <path d="m275.76 466.89c-0.040222 0.27881-0.021515 0.58551 0.058929 0.91916-1.0879-0.16724-0.59769-0.87204-0.058929-0.91916"/>
  <path d="m275.09 420.46l-0.2694-0.0375c0.1001 0.010498 0.19925 0.027863 0.26941 0.037506"/>
  <path d="m274.82 420.42l-0.6089-0.0836c0.18057 0.028778 0.39008 0.056641 0.60895 0.083618"/>
  <path d="m274.21 420.33l-0.5088-0.0636c0.15064 0.01828 0.31992 0.035645 0.50885 0.063568"/>
  <path d="m273.28 420.21l-0.5575-0.075c0.13004 0.02005 0.31802 0.037476 0.55746 0.074951"/>
  <path d="m272.82 9.6525v2.788c-2.7239-0.67804-2.0055 1.8512-3.9913 1.8602-1.4171 2.4802 1.7361-4.5924 3.9913-4.6482"/>
  <path d="m269.83 445.51c0.55844 2.1015 1.5565-1.1239 2.9933 0.92966-3.3328 1.8584-8.5214 1.9795-13.969 1.8584-0.39847-2.2295 4.5404 0.5123 2.9933-2.788 2.4544 3.3099 5.2485-2.0709 3.9913 1.8593 0.95786-0.67783 5.8471-4.358 3.9913-1.8593"/>
  <path d="m269.83 440.86c3.4329 2.3977-5.1288 2.2487 0 0"/>
  <path d="m268.83 434.36c1.0074 2.7985-2.2253 1.6458-3.9913 1.8592 0.65848-1.2459 2.1355-1.7277 3.9913-1.8592"/>
  <path d="m265.84 438.08v1.8583h-1.9952v-1.8583h1.9952"/>
  <path d="m258.85 442.72c0.42935-2.0805 4.9192-0.37985 6.9846-0.92874-2.1954 2.1189-4.0904 1.915-6.9846 0.92874"/>
  <path d="m263.84 256.86c0.029938-0.15768 0.079468-0.30667 0.13934-0.43649-0.019623 0.14032-0.059875 0.27881-0.13934 0.43649"/>
  <path d="m261.85 434.36c1.1674 0.14899 0.83807 1.692 0.99805 2.788-2.6743-0.724-3.981-0.30667-0.99805-2.788"/>
  <path d="m256.86 445.51c1.9859 1.5526 1.2675-0.083618 3.9913 0-1.4966 1.0873-2.4451 2.687-4.9894 2.788 0.52943-0.74316 1.0383-1.5056 0.99806-2.788"/>
  <path d="m258.85 438.08c3.692 2.8159-3.0325 3.1321 0 0"/>
  <path d="m253.86 417.63c0.11974-2.0535 4.2308-0.39899 5.9865-0.92874-0.11972 2.0535-4.2308 0.39035-5.9865 0.92874"/>
  <path d="m257.86 441.79v1.8584h-2.9933v-1.8584h2.9933"/>
  <path d="m255.86 436.22c5.139-3.9398-1.6959 4.3964-2.9933-1.8592 0.80914 0.80072 2.7342 0.5498 2.9933 1.8592"/>
  <path d="m249.87 258.71c3.4628-0.7432 3.8314 1.3853 6.9846 0.9296-0.23944 1.3478-8.2108 2.1564-6.9846-0.9296"/>
  <path d="m248.88 431.57c0.23947-1.346 8.2109-2.1546 6.9836 0.92966-3.0531-1.3287-3.1223 0.33542-6.9836-0.92966"/>
  <path d="m255.37 438.98c-0.07019-0.010468-0.14967-0.010468-0.20955-0.010468 0.07016 0 0.13936 0 0.20955 0.010468"/>
  <path d="m255.86 446.44c-0.55844 1.9333-1.5565 1.9699-2.9933 0.92963v-1.8593c1.6173-0.25873 1.7164 0.87476 2.9933 0.92966"/>
  <path d="m254.28 438.91c0.079514 0.008728 0.1693 0.008728 0.27969 0.017426-0.10008-0.008698-0.20018-0.008698-0.27969-0.017426"/>
  <path d="m243.89 467.81c2.3853-1.8583 6.6057 2.4814 10.976 1.8593-3.7416 3.1234-7.3138-1.8218-10.976-1.8593"/>
  <path d="m254.86 425.99c-0.14966 2.314-3.3824 0.27008-3.9913 0-0.27872-1.5056 0.9485-1.5978 0.99808-2.788 2.3946-0.37021-0.54909 4.23 2.9933 2.788"/>
  <path d="m253.86 325.63c-2.5546 0.037476-1.2169-0.68652-0.99806-1.8584-5.777 2.3803-5.7068-3.1957-6.9836-7.4344 6.1661-0.16727 5.6077 5.9288 7.9817 9.2927"/>
  <path d="m252.87 39.393c-0.42841 2.333-2.1448-1.5434-1.9952-2.788-1.3563 0.28773-0.82782 2.3219-0.99806 3.7159-1.7856 0.12265-2.1046-1.1331-3.9904-0.92786 0.42935-1.4587 3.1429-0.78957 1.9952-3.7181h3.9913c1.7454 1.8958-0.74832 1.8222 0.99712 3.7181"/>
  <path d="m251.87 228.98c-0.42935 2.5739-3.1429 0.044601-1.9961-1.8579 1.0879 0.23195 0.67911 1.8468 1.9961 1.8579"/>
  <path d="m248.88 423.21c0.14966-0.13849 1.9353 3.1321 1.9952 2.788-0.45833 2.5659-3.5124-1.374-1.9952-2.788"/>
  <path d="m250.87 441.79c-2.3544 2.9927-4.0306-3.2706 0 0"/>
  <path d="m247.88 423.21c0.41905 1.9438-0.68843 2.4639-0.99806 3.7176-1.7754-0.67783-0.13936-1.6902 0-2.788-3.8108-0.76148-1.1767 4.4791-4.9884 3.7176-0.1796-0.78937 0.38911-0.87299 0.99808-0.92963-1.0879-2.8255-10.795-1.1248-6.9846-5.576 1.6968 1.0498 1.058 2.3803 2.9933 2.788 1.6164 0.34415 0.29933-2.5083 0.99808-2.788 1.0074-0.3999 1.1973 2.7235 0.99712 2.788 1.317-0.43649 2.0055-3.7176 1.9961 0.92963 1.1973-1.0507 1.8063-2.6477 4.9884-1.8593"/>
  <path d="m247.88 429.71c0.68845 0.64212-3.9408 2.5554-2.9933 0.92963 0.14967-0.25003 2.1448-1.719 2.9933-0.92963"/>
  <path d="m247.88 55.19v3.7181h-9.9778c-0.41811-1.9427 0.68843-2.4624 0.99806-3.7181 1.1374 0.17621 0.55939 0.93008 0 0.93008 2.824 1.4587 5.777-1.2557 8.9798-0.93008"/>
  <path d="m248.88 259.64c-5.8771 1.4219-13.061-3.9302-18.958-5.576 5.2981-0.89215 11.753 5.1482 18.958 5.576"/>
  <path d="m246.88 446.44c-1.3068 1.7573-5.9865-1.171-5.9865-3.7176 1.3273-0.13849 3.7126 3.1234 3.9913 0.92966 1.1374 0.17773 0.55939 0.9296 0 0.9296 0.43869 0.8277 0.87834 1.6632 1.9952 1.8584"/>
  <path d="m242.89 383.25c0.55843-3.113 4.1906 4.953 0.99712 0-0.019638-0.037506-0.99712 0.019196-0.99712 0"/>
  <path d="m242.89 394.4c-2.3544-6.5796 4.879 5.0934 0.99712 0-0.088837-0.074921-0.96718 0.093262-0.99712 0"/>
  <path d="m244.88 75.637c2.3946 5.9462-9.7477 0.41708-13.968 0.92786-0.88864-1.9315 6.7947-0.24981 2.9933-1.8579 0.42935-2.081 4.9192-0.38139 6.9836-0.93006-0.10945 1.6639 3.4432 6.6087 3.9913 1.8602"/>
  <path d="m240.89 440.86c5.6975 0.93918 0.1207-6.1327 0-4.6464 0.69875 2.8621 0.69875 1.7843 0 4.6464zm0-10.222c-2.245 3.4946 4.4702 5.4 3.9913 10.222-1.1571-0.1481-1.7753 0.2056-1.9952 0.9296-3.6621 0-3.822-3.2532-5.9865-4.6472 0.15996-1.0873 1.8156-0.78064 2.9933-0.92874 0.089813-1.32 0.1693-2.6303-0.99808-2.788-2.8034 0.009613 2.375 2.538-1.9952 1.8584v-3.7176c1.1468 1.1152 2.5237 0.36334 0.99712 0-0.1796-0.78845 0.39006-0.87207 0.99806-0.92874h1.9952"/>
  <path d="m244.88 454.8c-4.1906 0.18558-2.1954-5.3904-5.9865-5.576 2.9437-2.6852 5.9865 2.4352 5.9865 5.576"/>
  <path d="m242.89 412.98c1.9353 0.084473-2.1056 3.9772 2.9933 2.788-2.1252 3.1783-14.178-2.8621-13.969-8.364 2.2852 1.2825 2.345 4.629 4.9894 5.576 3.7416-0.7345 0.059875-3.2524 1.9952-4.6464 2.6238-0.27881 0.78856 3.6052 3.9913 2.788-0.14966 1.7198-3.3824 0.56723-3.9913 1.8584-0.71837 1.5055 4.7097 1.5055 3.9913 0"/>
  <path d="m242.89 408.34c2.5742-3.1966 2.4142 4.7771 0 0"/>
  <path d="m242.89 18.016c5.0184 2.0542-1.2478 5.0942-0.99808 8.364-2.504-1.8022 1.1674-5.6585 0.99808-8.364"/>
  <path d="m240.89 436.22c0.1207-1.4863 5.6975 5.5856 0 4.6464 0.69875-2.8621 0.69875-1.7843 0-4.6464"/>
  <path d="m239.9 369.31c0.64822-2.6198 1.1571 2.1381 0.99712 2.788-0.45831 1.8689-1.8755 0.75366-0.99712-2.788"/>
  <path d="m240.89 95.153c-0.56776 0.86316-2.7734 1.4029-0.99712 1.8579-4.2205 2.9553-9.1201-1.394-12.971-1.8579 0.60896-0.82748 1.2076-1.6639 0-1.8602 7.1137-2.5828 5.8368 1.617 10.975 0-0.46863 1.9806 1.4274 1.7665 2.9933 1.8602"/>
  <path d="m236.9 393.47c3.3524-0.95666 1.5565 2.8908 1.9952 4.6463-2.1851-0.13849-2.1448-2.341-1.9952-4.6463"/>
  <path d="m237.9 258.71v1.8592h-1.9952v-1.8592h1.9952"/>
  <path d="m237.57 297.69c-0.21886 0.26053-0.43868 0.58456-0.66785 0.9845 0.19923-0.5759 0.42935-0.88168 0.66785-0.9845"/>
  <path d="m240.89 211.32c-4.4796-1.0974-4.8285-6.031-8.9798-7.4339 5.7779-4.2935 8.8404 1.8579 8.9798 7.4339"/>
  <path d="m235.9 113.74c0.15997 1.0773-0.21982 1.655-0.99806 1.8602 0.029938 0.89885 1.2179 0.72264 1.9961 0.92785-3.2028 1.6639-9.4587-1.4676-11.973-0.92785-1.3572-0.28994-0.82878-2.3241-0.99808-3.7181 5.3785 0.66911 8.3016 0.8364 11.973 1.8579"/>
  <path d="m237.9 169.5c-5.1278-3.6891-10.496 2.0542-11.973-3.7159 4.4104 0.84311 10.247 0.37027 11.973 3.7159"/>
  <path d="m232.91 16.159c1.2768 2.1568-3.1925 6.9053-3.9913 10.222-2.9035-3.669 3.6817-6.4481 3.9913-10.222"/>
  <path d="m232.91 135.11c-3.8211 1.8847-10.416-0.52191-11.973-3.7181 4.6798 0.60445 11.325-0.64236 11.973 3.7181"/>
  <path d="m226.92 309.83c0.37884-1.7651 1.2675 0.59598 0.99808 1.8584-0.37883 1.7669-1.2675-0.59326-0.99808-1.8584"/>
  <path d="m225.93 23.592c1.7763 0.68028 0.14032 1.6929 0 2.788-1.7754-0.67806-0.13936-1.6906 0-2.788"/>
  <path d="m226.92 253.14c-4.1503 1.2651-8.3007-2.2661-11.973-4.6455-7.0342-4.5634-13.748-9.9074-17.96-17.658 3.4918-3.1404 0.66882-6.8495 0.99808-12.08 1.5369-1.2178 1.0373 5.77 1.9952 8.364 2.9437 7.9915 11.394 16.03 17.96 20.444 3.2327 2.1751 7.6833 2.4173 8.9798 5.5756zm-26.022-19.301l0.1104 0.2409c-0.029938-0.073578-0.07016-0.14944-0.1104-0.24086"/>
  <path d="m224.93 17.089c2.8932 0.51968-1.5266 1.4498-0.99808 2.788-3.3029-0.91223 1.1178-1.8401 0.99808-2.788"/>
  <path d="m223.93 240.13c0.29933 1.1152-0.14966 0.49066-0.99806-0.60443 0.29932 0.2587 0.62859 0.46391 0.99806 0.60443"/>
  <path d="m221.94 49.615c1.766-0.29664 1.7754 5.2035-0.99808 3.7181 0.77826-0.82749 1.0776-2.101 0.99808-3.7181"/>
  <path d="m221.8 238.09c0.42935 0.50185 0.80817 1.0037 1.1374 1.4319-0.44899-0.38142-0.82782-0.87434-1.1374-1.4319"/>
  <path d="m218.94 62.624c4.0409 0.39032-1.3676 6.312 0 10.224-4.1204-1.3471 1.347-5.7344 0-10.224"/>
  <path d="m215.95 80.282c0.75766 1.3672 0.64822 9.8606-2.9933 10.222 1.2964-3.1314-0.10942-8.7722 2.9933-10.222"/>
  <path d="m212.96 31.029c0.79788 0.49291 1.6164 0.96576 2.9933 0.92786-0.28998 3.2341-2.7042-0.073626-2.9933 1.8601-1.477-0.41038 0.38913-1.191 0-2.788"/>
  <path d="m214.95 228.05c0.029938 0.58659 0.089798 1.162 0.1899 1.7286-0.1899-0.51967-0.27968-1.0862-0.1899-1.7286"/>
  <path d="m212.96 105.37c0.53879 2.6386-3.0531-5.4087-2.9933-8.364 3.3824 0.56654 1.2675 6.254 2.9933 8.364"/>
  <path d="m209.96 20.804c-5.8574 3.272-2.7042 6.2184 0 0zm4.9884-5.576c-3.7416 5.8102-5.8864 13.104-9.9778 18.588-3.7313-1.4966 4.6798-8.6896-1.9952-7.4361 3.692-3.9947 5.2485-9.981 11.973-11.152"/>
  <path d="m209.96 20.804c-2.7042 6.2184-5.8574 3.272 0 0"/>
  <path d="m202.98 137.9c1.4564 1.7174-1.0177 7.6837-1.9952 10.222-3.2524-0.14941 0.69873-8.2614 1.9952-10.222"/>
  <path d="m200.98 31.029c1.6164 0.90999 2.2945 2.4802 0.99712 3.7159-1.3563-0.28774-0.82782-2.3219-0.99712-3.7159"/>
  <path d="m201.01 234.08l-0.1104-0.2409c0.040237 0.091415 0.08046 0.16728 0.1104 0.24086"/>
  <path d="m198.99 203.88c0.37978-1.7665 1.2675 0.59329 0.99806 1.8579-0.37882 1.7665-1.2675-0.59326-0.99806-1.8579"/>
  <path d="m197.99 157.42c2.8333 1.2356-0.76891 4.1329-0.99808 5.576-2.085-0.53976 1.4368-3.5151 0.99808-5.576"/>
  <path d="m185.02 229.91c0.040237 0.64011 0.14966 1.2803 0.30963 1.8936-0.46965-0.41708-0.73904-1.0505-0.30963-1.8936"/>
  <path d="m168.06 217.82c0.37883-1.7665 1.2665 0.59329 0.99712 1.8579-0.37883 1.7665-1.2665-0.59326-0.99712-1.8579"/>
  <path d="m168.06 173.22v1.8579h-1.9961v-1.8579h1.9961"/>
 </g>
</svg>
